<?xml version="1.0" standalone="yes"?>

<svg version="1.1" viewBox="0.0 0.0 960.0 720.0" fill="none" stroke="none" stroke-linecap="square" stroke-miterlimit="10" xmlns="http://www.w3.org/2000/svg" xmlns:xlink="http://www.w3.org/1999/xlink"><clipPath id="p.0"><path d="m0 0l960.0 0l0 720.0l-960.0 0l0 -720.0z" clip-rule="nonzero"></path></clipPath><g clip-path="url(#p.0)"><path fill="#000000" fill-opacity="0.0" d="m0 0l960.0 0l0 720.0l-960.0 0z" fill-rule="evenodd"></path><path fill="#cf6866" d="m55.75853 367.26773l0 0c0 -125.851364 190.7549 -227.87402 426.063 -227.87402l0 0c235.3081 0 426.063 102.02266 426.063 227.87402l0 0c0 125.85132 -190.75488 227.874 -426.063 227.874l0 0c-235.3081 0 -426.063 -102.022675 -426.063 -227.874z" fill-rule="evenodd"></path><path stroke="#000000" stroke-width="1.0" stroke-linejoin="round" stroke-linecap="butt" d="m55.75853 367.26773l0 0c0 -125.851364 190.7549 -227.87402 426.063 -227.87402l0 0c235.3081 0 426.063 102.02266 426.063 227.87402l0 0c0 125.85132 -190.75488 227.874 -426.063 227.874l0 0c-235.3081 0 -426.063 -102.022675 -426.063 -227.874z" fill-rule="evenodd"></path><path fill="#2c3e50" d="m67.27034 367.26773l0 0c0 -119.49356 185.60089 -216.36221 414.5512 -216.36221l0 0c228.95026 0 414.55115 96.86865 414.55115 216.36221l0 0c0 119.49353 -185.60089 216.36221 -414.55115 216.36221l0 0c-228.9503 0 -414.5512 -96.86868 -414.5512 -216.36221z" fill-rule="evenodd"></path><path stroke="#000000" stroke-width="1.0" stroke-linejoin="round" stroke-linecap="butt" d="m67.27034 367.26773l0 0c0 -119.49356 185.60089 -216.36221 414.5512 -216.36221l0 0c228.95026 0 414.55115 96.86865 414.55115 216.36221l0 0c0 119.49353 -185.60089 216.36221 -414.55115 216.36221l0 0c-228.9503 0 -414.5512 -96.86868 -414.5512 -216.36221z" fill-rule="evenodd"></path><path fill="#cf6866" d="m220.89088 317.51135c5.2437897 0.71743774 9.759277 2.0544128 13.546448 4.0109863c3.7871857 1.9565735 6.882477 4.434906 9.285873 7.4349976c2.4034119 3.0000916 4.1877594 6.4784546 5.3530426 10.435089c1.1652832 3.934906 1.7479248 8.250244 1.7479248 12.946014c0 4.761017 -0.5826416 9.293762 -1.7479248 13.598236c-1.1652832 4.3044434 -2.9496307 8.152405 -5.3530426 11.543793c-2.4033966 3.391388 -5.4986877 6.21756 -9.285873 8.478516c-3.7871704 2.2391663 -8.302658 3.6848755 -13.546448 4.3370667l0 -72.7847zm0 85.60028c3.8600159 0.1956482 7.149521 0.7174072 9.868515 1.5652771c2.7432861 0.84783936 4.9645996 1.9130859 6.663986 3.1957397c1.7236481 1.2608948 2.9617615 2.706604 3.7143402 4.3370667c0.77685547 1.6304932 1.1652985 3.2609558 1.1652985 4.891449c0 3.4566345 -1.6751099 6.424103 -5.025299 8.902435c-3.3502045 2.4783325 -8.812485 3.847931 -16.38684 4.108795l0 -27.000763zm-17.807022 -87.459015c1.820755 0 3.4230194 0.032592773 4.8068085 0.097839355c1.3837738 0.065216064 2.6218872 0.1630249 3.7143402 0.29348755l0 114.55762c-0.6554718 0.065216064 -1.7843475 0.11956787 -3.386612 0.1630249c-1.6022644 0.021759033 -3.3137817 0.03262329 -5.1345367 0.03262329l0 -115.14459zm-46.86635 -12.424255c-3.4958649 0 -6.3362427 0.29345703 -8.521149 0.8804321c-2.1849213 0.5869751 -3.8964233 1.4565735 -5.134552 2.6087952c-1.2381134 1.1304626 -2.075653 2.5435486 -2.5126495 4.2392273c-0.4369812 1.6957092 -0.6554718 3.684906 -0.6554718 5.96756l0 113.18802c0 2.2826843 0.2184906 4.271881 0.6554718 5.96756c0.43699646 1.6957092 1.2745361 3.097931 2.5126495 4.206665c1.2381287 1.1087036 2.9496307 1.9565735 5.134552 2.5435486c2.184906 0.5869751 5.025284 0.88046265 8.521149 0.88046265l49.81598 0c6.117752 0 12.247635 -0.30438232 18.389664 -0.91308594c6.1663055 -0.63046265 11.725693 -1.934845 16.678162 -3.913147c4.952469 -2.000061 8.970276 -4.826233 12.053421 -8.478516c3.1074371 -3.6522827 4.661148 -8.511108 4.661148 -14.576508c0 -4.6957703 -1.3473511 -8.717621 -4.0420837 -12.065552c-2.6947174 -3.3696594 -6.7368164 -5.8371277 -12.126251 -7.4023743c7.7200165 -3.1305237 13.740662 -8.478516 18.06192 -16.043945c4.3455505 -7.5654297 6.5183105 -17.413544 6.5183105 -29.544312c0 -8.674164 -1.7114868 -16.022217 -5.1345215 -22.044128c-3.4230347 -6.04364 -7.97493 -10.956818 -13.655701 -14.739532c-5.680771 -3.7827148 -12.199081 -6.521942 -19.554962 -8.217621c-7.3558655 -1.6957092 -15.003052 -2.5435486 -22.941559 -2.5435486z" fill-rule="evenodd"></path><path fill="#cf6866" d="m311.12772 384.23065l12.126251 38.2511l-23.597015 0l11.470764 -38.2511zm30.697998 -72.78467c2.0392761 0 3.4715881 0.18478394 4.296997 0.5543518c0.8497009 0.34783936 1.5658569 1.2065735 2.1484985 2.5761719l49.160522 117.49249c0.5826416 1.3043823 0.63119507 2.2065735 0.1456604 2.7065735c-0.4612732 0.47827148 -1.3473816 0.7174072 -2.6583252 0.7174072l-5.2437744 0l-51.673157 -124.047zm-11.033783 -8.217621c-2.5490723 0.13043213 -4.515503 0.9456787 -5.8992615 2.4457092c-1.3837891 1.5000305 -2.6218872 3.7827148 -3.7143555 6.8480225l-45.664642 123.75354c-0.4369812 1.1087341 -0.78900146 2.0761414 -1.0560303 2.9022522c-0.24279785 0.8043518 -0.36416626 1.5000305 -0.36416626 2.0870056c0 1.6304932 1.1652832 2.4457397 3.4958496 2.4457397l11.252289 0c1.2381287 0 2.23349 -0.1413269 2.9860535 -0.4239502c0.77685547 -0.3043518 1.3837891 -0.7282715 1.8207703 -1.271759c0.4369812 -0.5652466 0.80111694 -1.2174377 1.0924377 -1.9565735c0.2913208 -0.7608948 0.54623413 -1.6304932 0.76474 -2.6087646l0.7647095 -2.9348755l30.697998 0l1.2017212 3.4240112c0.1456604 0.52175903 0.4491272 1.1087341 0.9103699 1.7609253c0.48553467 0.65219116 1.1652832 1.271759 2.0392456 1.8587341c0.8739624 0.5869751 1.9421387 1.0978699 3.2045288 1.5326538c1.2866821 0.41305542 2.8768005 0.6195984 4.7703857 0.6195984l61.94226 0c1.7479248 0 3.3987427 -0.5543823 4.9524536 -1.6631165c1.5780029 -1.1087036 2.3669739 -2.8370361 2.3669739 -5.184906c0 -0.7174072 -0.07281494 -1.434845 -0.21847534 -2.1522522c-0.1456604 -0.7174072 -0.40057373 -1.5326538 -0.7647095 -2.4457092l-50.143738 -119.9382c-0.728302 -1.6957092 -1.420166 -3.1305237 -2.075653 -4.304474c-0.65548706 -1.1739502 -1.3716431 -2.119629 -2.1484985 -2.8370361c-0.7525635 -0.71743774 -1.6022644 -1.2174377 -2.5490723 -1.500061c-0.94677734 -0.3043518 -2.075653 -0.45651245 -3.3865967 -0.45651245z" fill-rule="evenodd"></path><path fill="#cf6866" d="m483.18948 311.44598c1.7479248 0 3.1681213 0.054351807 4.2605896 0.1630249c1.0924377 0.0869751 1.9664001 0.34783936 2.6218872 0.7826538c0.65545654 0.41305542 1.0924377 1.0434875 1.3109436 1.8913574c0.21850586 0.84783936 0.32772827 1.9891663 0.32772827 3.4240112l0 111.5249c0 1.500061 -0.10922241 2.6631165 -0.32772827 3.4892578c-0.21850586 0.8043518 -0.65548706 1.4239197 -1.3109436 1.8587341c-0.65548706 0.41305542 -1.5294495 0.6739197 -2.6218872 0.7826233c-1.0924683 0.0869751 -2.5126648 0.13043213 -4.2605896 0.13043213l0 -124.047zm50.25296 -9.293762c-0.80114746 0 -1.6022949 0.25 -2.4033813 0.7500305c-0.80114746 0.47827148 -1.7115479 1.1739502 -2.7311401 2.0870056l-27.311401 23.77243l0 -11.543823c0 -1.5000305 -0.13354492 -3.0761719 -0.40057373 -4.7283936c-0.24276733 -1.6739502 -0.8982544 -3.1957397 -1.9664307 -4.565338c-1.0439148 -1.3695984 -2.6218872 -2.4891968 -4.7339783 -3.3587952c-2.1120605 -0.8913269 -5.0617065 -1.3369751 -8.848877 -1.3369751l-48.72351 0c-3.4958801 0 -6.3362427 0.29345703 -8.521179 0.8804321c-2.184906 0.5869751 -3.8964233 1.4565735 -5.1345215 2.6087952c-1.2381287 1.1304626 -2.0756836 2.5435486 -2.5126648 4.2392273c-0.4369812 1.6957092 -0.65545654 3.684906 -0.65545654 5.96756l0 113.18802c0 2.2826843 0.21847534 4.271881 0.65545654 5.96756c0.4369812 1.6957092 1.2745361 3.097931 2.5126648 4.206665c1.2380981 1.1087036 2.9496155 1.9565735 5.1345215 2.5435486c2.1849365 0.5869751 5.025299 0.88046265 8.521179 0.88046265l46.75708 0c4.224182 0 7.537964 -0.5543823 9.941345 -1.6631165c2.4034119 -1.1087036 4.187744 -2.4565735 5.353058 -4.043579c1.1652832 -1.6087341 1.8935852 -3.3261719 2.184906 -5.152313c0.2913208 -1.8261414 0.4369812 -3.4892273 0.4369812 -4.9892883l0 -77.57831c3.4958496 0.13046265 6.4212036 0.478302 8.776062 1.0435181c2.3790894 0.54348755 4.296997 1.4239502 5.753601 2.641388c1.456604 1.1956787 2.4883423 2.77182 3.0952759 4.7283936c0.63116455 1.9565735 0.94677734 4.434906 0.94677734 7.4349976l0 72.98035c0 1.1087341 0.2670288 2.1522217 0.80114746 3.1305237c0.5583496 0.9782715 1.7843628 1.4674377 3.6779175 1.4674377l9.176636 0c0.6555176 0 1.3109741 -0.03262329 1.9664307 -0.097839355c0.65545654 -0.065216064 1.2138062 -0.23913574 1.6751099 -0.52175903c0.48553467 -0.3043518 0.8861084 -0.7608948 1.2017212 -1.3695984c0.33984375 -0.63046265 0.5097656 -1.5000305 0.5097656 -2.6087646l0 -71.904236c0 -8.413269 -2.3669434 -14.869995 -7.100952 -19.370117c-4.7339478 -4.500122 -12.271912 -7.174103 -22.61383 -8.021973l33.42914 -23.381104c1.7479248 -1.2391663 2.6218872 -2.5109253 2.6218872 -3.8153076c0 -0.52175903 -0.14562988 -0.98916626 -0.43695068 -1.4022217c-0.2913208 -0.43481445 -0.69189453 -0.91308594 -1.2017212 -1.4348145l-6.117737 -5.7719116c-0.65545654 -0.5869751 -1.2623901 -1.0435181 -1.8207397 -1.3695984c-0.53411865 -0.32611084 -1.1652832 -0.48916626 -1.8936157 -0.48916626z" fill-rule="evenodd"></path><path fill="#cf6866" d="m621.2759 311.05466l8.521179 1.0761108l0 120.720856l-8.521179 0.9782715l0 -122.77524zm-43.807495 -7.826294c-2.986023 0 -5.705017 0.18478394 -8.156982 0.5543518c-2.4276733 0.34783936 -4.515503 1.1304626 -6.2634277 2.3479004c-1.7479248 1.1956787 -3.0952759 2.9239807 -4.042053 5.184906c-0.94677734 2.2391968 -1.420227 5.21756 -1.420227 8.935059l0 109.86182c0 2.2826843 0.21850586 4.271881 0.6555176 5.96756c0.43695068 1.6957092 1.2745361 3.097931 2.5126343 4.206665c1.2380981 1.1087036 2.925354 1.9565735 5.0617065 2.5435486c2.1606445 0.5869751 4.9524536 0.88046265 8.375488 0.88046265l106.18671 0c2.4761963 0 4.042053 -0.5000305 4.697571 -1.500061c0.65545654 -1.021759 0.9831543 -2.119629 0.9831543 -3.293579l0 -9.000244c0 -1.3043823 -0.43695068 -2.1631165 -1.3109131 -2.5761719c-0.8739624 -0.43478394 -1.9299927 -0.65219116 -3.1681519 -0.65219116c-0.5826416 0 -1.6386719 0.065216064 -3.1680908 0.19567871c-1.529419 0.13043213 -3.3502197 0.32608032 -5.4622803 0.5869751c-2.1120605 0.26086426 -4.430542 0.54348755 -6.9553223 0.84783936c-2.5004883 0.2826233 -4.9888916 0.5869751 -7.465088 0.9130554c-5.899292 0.71743774 -12.381165 1.5326538 -19.44574 2.4457397l0 -79.33923l40.639343 0c1.52948 0 2.2941895 -0.7174072 2.2941895 -2.1522217l0 -9.782898c0 -1.3695984 -0.7647095 -2.0544128 -2.2941895 -2.0544128l-40.639343 0l0 -24.848541c6.190613 0.91308594 11.907776 1.7283325 17.15155 2.4457397c2.2577515 0.32608032 4.515503 0.6195679 6.7732544 0.88046265c2.2577515 0.26086426 4.369812 0.51086426 6.3362427 0.7500305c1.9664307 0.21737671 3.6900635 0.3912964 5.1709595 0.5217285c1.505127 0.13046265 2.6218872 0.19567871 3.3502197 0.19567871c1.2380981 0 2.2333984 -0.20654297 2.986023 -0.6195984c0.77685547 -0.43478394 1.1652832 -1.3043823 1.1652832 -2.6087646l0 -6.945862c0 -1.2391663 -0.35205078 -2.3587646 -1.0560303 -3.3587952c-0.67974854 -1.021759 -2.2577515 -1.5326233 -4.734009 -1.5326233z" fill-rule="evenodd"></path><path fill="#cf6866" d="m782.0853 317.70703c5.2438354 0.9130554 9.759277 2.6087646 13.546448 5.087097c3.7872314 2.4783325 6.8825073 5.608856 9.285889 9.391571c2.4033813 3.7827148 4.187744 8.152405 5.3530273 13.10907c1.1652832 4.956665 1.7479248 10.369873 1.7479248 16.239594c0 6.4566956 -0.5826416 12.413391 -1.7479248 17.870087c-1.1652832 5.4349365 -2.949646 10.23941 -5.3530273 14.413452c-2.4033813 4.174011 -5.498657 7.6523743 -9.285889 10.435059c-3.7871704 2.7609558 -8.302612 4.6631775 -13.546448 5.7066956l0 -92.252625zm-17.807007 -1.6630859c1.0924683 0 2.4155884 0.021728516 3.9692383 0.065216064c1.578064 0.021728516 3.095337 0.065216064 4.551941 0.13043213l0 112.99234c0 1.500061 -0.10925293 2.6631165 -0.3277588 3.4892578c-0.21850586 0.8043518 -0.65545654 1.4239197 -1.3109741 1.8587341c-0.65545654 0.41305542 -1.529419 0.6739197 -2.6218872 0.7826233c-1.0924072 0.0869751 -2.5126343 0.13043213 -4.260559 0.13043213l0 -119.449036zm-46.866333 -12.815582c-3.4958496 0 -6.3362427 0.29345703 -8.521179 0.8804321c-2.1848755 0.5869751 -3.8964233 1.4565735 -5.1345215 2.6087952c-1.2380981 1.1304626 -2.0756836 2.5435486 -2.5126343 4.2392273c-0.43701172 1.6957092 -0.6555176 3.684906 -0.6555176 5.96756l0 113.18802c0 2.2826843 0.21850586 4.271881 0.6555176 5.96756c0.43695068 1.6957092 1.2745361 3.097931 2.5126343 4.206665c1.2380981 1.1087036 2.949646 1.9565735 5.1345215 2.5435486c2.1849365 0.5869751 5.0253296 0.88046265 8.521179 0.88046265l48.395752 0c3.1317139 0 5.72937 -0.32611084 7.7928467 -0.978302c2.0878296 -0.65219116 3.7629395 -1.5652466 5.0253296 -2.7391968c1.2866821 -1.1739502 2.1848755 -2.5870361 2.6947021 -4.239258c0.50982666 -1.6739807 0.7647095 -3.5544434 0.7647095 -5.6414795l0 -7.337158c3.058899 -0.5869751 6.020691 -1.3370056 8.885315 -2.250061c2.888977 -0.9130554 5.717224 -2.0544128 8.484741 -3.4240112l15.294373 26.805115c0.6555176 1.1087341 1.3837891 1.8913574 2.1849365 2.3479004c0.80114746 0.45651245 1.6022339 0.68478394 2.4033813 0.68478394c0.5826416 0 1.1410522 -0.08694458 1.6751099 -0.26086426c0.55841064 -0.15216064 1.0924683 -0.3587036 1.6022949 -0.6195984l6.5546875 -3.4240112c0.8739624 -0.45651245 1.6872559 -1.0434875 2.4398193 -1.7608948c0.7769165 -0.71743774 1.1652832 -1.5652771 1.1652832 -2.5435486c0 -0.8478699 -0.36413574 -1.7283325 -1.0924072 -2.641388l-21.849121 -25.826843c2.6218872 -2.413086 5.0010376 -5.195801 7.13739 -8.348053c2.1606445 -3.1740112 4.005615 -6.815399 5.535095 -10.924225c1.529419 -4.1088257 2.7311401 -8.706757 3.6051025 -13.793884c0.8739624 -5.087097 1.3109131 -10.761169 1.3109131 -17.022217c0 -7.3045654 -0.7889404 -13.761261 -2.3669434 -19.370117c-1.5537109 -5.608856 -3.7386475 -10.511169 -6.5547485 -14.70694c-2.791809 -4.217499 -6.105591 -7.761078 -9.941345 -10.630737c-3.8114624 -2.8696594 -7.9992065 -5.163208 -12.563232 -6.8806458c-4.539734 -1.7391663 -9.346558 -3.000061 -14.42041 -3.7827148c-5.0495605 -0.7826233 -10.196289 -1.1739197 -15.440063 -1.1739197z" fill-rule="evenodd"></path><path stroke="#000000" stroke-width="1.0" stroke-linejoin="round" stroke-linecap="butt" d="m220.89088 317.51135c5.2437897 0.71743774 9.759277 2.0544128 13.546448 4.0109863c3.7871857 1.9565735 6.882477 4.434906 9.285873 7.4349976c2.4034119 3.0000916 4.1877594 6.4784546 5.3530426 10.435089c1.1652832 3.934906 1.7479248 8.250244 1.7479248 12.946014c0 4.761017 -0.5826416 9.293762 -1.7479248 13.598236c-1.1652832 4.3044434 -2.9496307 8.152405 -5.3530426 11.543793c-2.4033966 3.391388 -5.4986877 6.21756 -9.285873 8.478516c-3.7871704 2.2391663 -8.302658 3.6848755 -13.546448 4.3370667l0 -72.7847zm0 85.60028c3.8600159 0.1956482 7.149521 0.7174072 9.868515 1.5652771c2.7432861 0.84783936 4.9645996 1.9130859 6.663986 3.1957397c1.7236481 1.2608948 2.9617615 2.706604 3.7143402 4.3370667c0.77685547 1.6304932 1.1652985 3.2609558 1.1652985 4.891449c0 3.4566345 -1.6751099 6.424103 -5.025299 8.902435c-3.3502045 2.4783325 -8.812485 3.847931 -16.38684 4.108795l0 -27.000763zm-17.807022 -87.459015c1.820755 0 3.4230194 0.032592773 4.8068085 0.097839355c1.3837738 0.065216064 2.6218872 0.1630249 3.7143402 0.29348755l0 114.55762c-0.6554718 0.065216064 -1.7843475 0.11956787 -3.386612 0.1630249c-1.6022644 0.021759033 -3.3137817 0.03262329 -5.1345367 0.03262329l0 -115.14459zm-46.86635 -12.424255c-3.4958649 0 -6.3362427 0.29345703 -8.521149 0.8804321c-2.1849213 0.5869751 -3.8964233 1.4565735 -5.134552 2.6087952c-1.2381134 1.1304626 -2.075653 2.5435486 -2.5126495 4.2392273c-0.4369812 1.6957092 -0.6554718 3.684906 -0.6554718 5.96756l0 113.18802c0 2.2826843 0.2184906 4.271881 0.6554718 5.96756c0.43699646 1.6957092 1.2745361 3.097931 2.5126495 4.206665c1.2381287 1.1087036 2.9496307 1.9565735 5.134552 2.5435486c2.184906 0.5869751 5.025284 0.88046265 8.521149 0.88046265l49.81598 0c6.117752 0 12.247635 -0.30438232 18.389664 -0.91308594c6.1663055 -0.63046265 11.725693 -1.934845 16.678162 -3.913147c4.952469 -2.000061 8.970276 -4.826233 12.053421 -8.478516c3.1074371 -3.6522827 4.661148 -8.511108 4.661148 -14.576508c0 -4.6957703 -1.3473511 -8.717621 -4.0420837 -12.065552c-2.6947174 -3.3696594 -6.7368164 -5.8371277 -12.126251 -7.4023743c7.7200165 -3.1305237 13.740662 -8.478516 18.06192 -16.043945c4.3455505 -7.5654297 6.5183105 -17.413544 6.5183105 -29.544312c0 -8.674164 -1.7114868 -16.022217 -5.1345215 -22.044128c-3.4230347 -6.04364 -7.97493 -10.956818 -13.655701 -14.739532c-5.680771 -3.7827148 -12.199081 -6.521942 -19.554962 -8.217621c-7.3558655 -1.6957092 -15.003052 -2.5435486 -22.941559 -2.5435486z" fill-rule="evenodd"></path><path stroke="#000000" stroke-width="1.0" stroke-linejoin="round" stroke-linecap="butt" d="m311.12772 384.23065l12.126251 38.2511l-23.597015 0l11.470764 -38.2511zm30.697998 -72.78467c2.0392761 0 3.4715881 0.18478394 4.296997 0.5543518c0.8497009 0.34783936 1.5658569 1.2065735 2.1484985 2.5761719l49.160522 117.49249c0.5826416 1.3043823 0.63119507 2.2065735 0.1456604 2.7065735c-0.4612732 0.47827148 -1.3473816 0.7174072 -2.6583252 0.7174072l-5.2437744 0l-51.673157 -124.047zm-11.033783 -8.217621c-2.5490723 0.13043213 -4.515503 0.9456787 -5.8992615 2.4457092c-1.3837891 1.5000305 -2.6218872 3.7827148 -3.7143555 6.8480225l-45.664642 123.75354c-0.4369812 1.1087341 -0.78900146 2.0761414 -1.0560303 2.9022522c-0.24279785 0.8043518 -0.36416626 1.5000305 -0.36416626 2.0870056c0 1.6304932 1.1652832 2.4457397 3.4958496 2.4457397l11.252289 0c1.2381287 0 2.23349 -0.1413269 2.9860535 -0.4239502c0.77685547 -0.3043518 1.3837891 -0.7282715 1.8207703 -1.271759c0.4369812 -0.5652466 0.80111694 -1.2174377 1.0924377 -1.9565735c0.2913208 -0.7608948 0.54623413 -1.6304932 0.76474 -2.6087646l0.7647095 -2.9348755l30.697998 0l1.2017212 3.4240112c0.1456604 0.52175903 0.4491272 1.1087341 0.9103699 1.7609253c0.48553467 0.65219116 1.1652832 1.271759 2.0392456 1.8587341c0.8739624 0.5869751 1.9421387 1.0978699 3.2045288 1.5326538c1.2866821 0.41305542 2.8768005 0.6195984 4.7703857 0.6195984l61.94226 0c1.7479248 0 3.3987427 -0.5543823 4.9524536 -1.6631165c1.5780029 -1.1087036 2.3669739 -2.8370361 2.3669739 -5.184906c0 -0.7174072 -0.07281494 -1.434845 -0.21847534 -2.1522522c-0.1456604 -0.7174072 -0.40057373 -1.5326538 -0.7647095 -2.4457092l-50.143738 -119.9382c-0.728302 -1.6957092 -1.420166 -3.1305237 -2.075653 -4.304474c-0.65548706 -1.1739502 -1.3716431 -2.119629 -2.1484985 -2.8370361c-0.7525635 -0.71743774 -1.6022644 -1.2174377 -2.5490723 -1.500061c-0.94677734 -0.3043518 -2.075653 -0.45651245 -3.3865967 -0.45651245z" fill-rule="evenodd"></path><path stroke="#000000" stroke-width="1.0" stroke-linejoin="round" stroke-linecap="butt" d="m483.18948 311.44598c1.7479248 0 3.1681213 0.054351807 4.2605896 0.1630249c1.0924377 0.0869751 1.9664001 0.34783936 2.6218872 0.7826538c0.65545654 0.41305542 1.0924377 1.0434875 1.3109436 1.8913574c0.21850586 0.84783936 0.32772827 1.9891663 0.32772827 3.4240112l0 111.5249c0 1.500061 -0.10922241 2.6631165 -0.32772827 3.4892578c-0.21850586 0.8043518 -0.65548706 1.4239197 -1.3109436 1.8587341c-0.65548706 0.41305542 -1.5294495 0.6739197 -2.6218872 0.7826233c-1.0924683 0.0869751 -2.5126648 0.13043213 -4.2605896 0.13043213l0 -124.047zm50.25296 -9.293762c-0.80114746 0 -1.6022949 0.25 -2.4033813 0.7500305c-0.80114746 0.47827148 -1.7115479 1.1739502 -2.7311401 2.0870056l-27.311401 23.77243l0 -11.543823c0 -1.5000305 -0.13354492 -3.0761719 -0.40057373 -4.7283936c-0.24276733 -1.6739502 -0.8982544 -3.1957397 -1.9664307 -4.565338c-1.0439148 -1.3695984 -2.6218872 -2.4891968 -4.7339783 -3.3587952c-2.1120605 -0.8913269 -5.0617065 -1.3369751 -8.848877 -1.3369751l-48.72351 0c-3.4958801 0 -6.3362427 0.29345703 -8.521179 0.8804321c-2.184906 0.5869751 -3.8964233 1.4565735 -5.1345215 2.6087952c-1.2381287 1.1304626 -2.0756836 2.5435486 -2.5126648 4.2392273c-0.4369812 1.6957092 -0.65545654 3.684906 -0.65545654 5.96756l0 113.18802c0 2.2826843 0.21847534 4.271881 0.65545654 5.96756c0.4369812 1.6957092 1.2745361 3.097931 2.5126648 4.206665c1.2380981 1.1087036 2.9496155 1.9565735 5.1345215 2.5435486c2.1849365 0.5869751 5.025299 0.88046265 8.521179 0.88046265l46.75708 0c4.224182 0 7.537964 -0.5543823 9.941345 -1.6631165c2.4034119 -1.1087036 4.187744 -2.4565735 5.353058 -4.043579c1.1652832 -1.6087341 1.8935852 -3.3261719 2.184906 -5.152313c0.2913208 -1.8261414 0.4369812 -3.4892273 0.4369812 -4.9892883l0 -77.57831c3.4958496 0.13046265 6.4212036 0.478302 8.776062 1.0435181c2.3790894 0.54348755 4.296997 1.4239502 5.753601 2.641388c1.456604 1.1956787 2.4883423 2.77182 3.0952759 4.7283936c0.63116455 1.9565735 0.94677734 4.434906 0.94677734 7.4349976l0 72.98035c0 1.1087341 0.2670288 2.1522217 0.80114746 3.1305237c0.5583496 0.9782715 1.7843628 1.4674377 3.6779175 1.4674377l9.176636 0c0.6555176 0 1.3109741 -0.03262329 1.9664307 -0.097839355c0.65545654 -0.065216064 1.2138062 -0.23913574 1.6751099 -0.52175903c0.48553467 -0.3043518 0.8861084 -0.7608948 1.2017212 -1.3695984c0.33984375 -0.63046265 0.5097656 -1.5000305 0.5097656 -2.6087646l0 -71.904236c0 -8.413269 -2.3669434 -14.869995 -7.100952 -19.370117c-4.7339478 -4.500122 -12.271912 -7.174103 -22.61383 -8.021973l33.42914 -23.381104c1.7479248 -1.2391663 2.6218872 -2.5109253 2.6218872 -3.8153076c0 -0.52175903 -0.14562988 -0.98916626 -0.43695068 -1.4022217c-0.2913208 -0.43481445 -0.69189453 -0.91308594 -1.2017212 -1.4348145l-6.117737 -5.7719116c-0.65545654 -0.5869751 -1.2623901 -1.0435181 -1.8207397 -1.3695984c-0.53411865 -0.32611084 -1.1652832 -0.48916626 -1.8936157 -0.48916626z" fill-rule="evenodd"></path><path stroke="#000000" stroke-width="1.0" stroke-linejoin="round" stroke-linecap="butt" d="m621.2759 311.05466l8.521179 1.0761108l0 120.720856l-8.521179 0.9782715l0 -122.77524zm-43.807495 -7.826294c-2.986023 0 -5.705017 0.18478394 -8.156982 0.5543518c-2.4276733 0.34783936 -4.515503 1.1304626 -6.2634277 2.3479004c-1.7479248 1.1956787 -3.0952759 2.9239807 -4.042053 5.184906c-0.94677734 2.2391968 -1.420227 5.21756 -1.420227 8.935059l0 109.86182c0 2.2826843 0.21850586 4.271881 0.6555176 5.96756c0.43695068 1.6957092 1.2745361 3.097931 2.5126343 4.206665c1.2380981 1.1087036 2.925354 1.9565735 5.0617065 2.5435486c2.1606445 0.5869751 4.9524536 0.88046265 8.375488 0.88046265l106.18671 0c2.4761963 0 4.042053 -0.5000305 4.697571 -1.500061c0.65545654 -1.021759 0.9831543 -2.119629 0.9831543 -3.293579l0 -9.000244c0 -1.3043823 -0.43695068 -2.1631165 -1.3109131 -2.5761719c-0.8739624 -0.43478394 -1.9299927 -0.65219116 -3.1681519 -0.65219116c-0.5826416 0 -1.6386719 0.065216064 -3.1680908 0.19567871c-1.529419 0.13043213 -3.3502197 0.32608032 -5.4622803 0.5869751c-2.1120605 0.26086426 -4.430542 0.54348755 -6.9553223 0.84783936c-2.5004883 0.2826233 -4.9888916 0.5869751 -7.465088 0.9130554c-5.899292 0.71743774 -12.381165 1.5326538 -19.44574 2.4457397l0 -79.33923l40.639343 0c1.52948 0 2.2941895 -0.7174072 2.2941895 -2.1522217l0 -9.782898c0 -1.3695984 -0.7647095 -2.0544128 -2.2941895 -2.0544128l-40.639343 0l0 -24.848541c6.190613 0.91308594 11.907776 1.7283325 17.15155 2.4457397c2.2577515 0.32608032 4.515503 0.6195679 6.7732544 0.88046265c2.2577515 0.26086426 4.369812 0.51086426 6.3362427 0.7500305c1.9664307 0.21737671 3.6900635 0.3912964 5.1709595 0.5217285c1.505127 0.13046265 2.6218872 0.19567871 3.3502197 0.19567871c1.2380981 0 2.2333984 -0.20654297 2.986023 -0.6195984c0.77685547 -0.43478394 1.1652832 -1.3043823 1.1652832 -2.6087646l0 -6.945862c0 -1.2391663 -0.35205078 -2.3587646 -1.0560303 -3.3587952c-0.67974854 -1.021759 -2.2577515 -1.5326233 -4.734009 -1.5326233z" fill-rule="evenodd"></path><path stroke="#000000" stroke-width="1.0" stroke-linejoin="round" stroke-linecap="butt" d="m782.0853 317.70703c5.2438354 0.9130554 9.759277 2.6087646 13.546448 5.087097c3.7872314 2.4783325 6.8825073 5.608856 9.285889 9.391571c2.4033813 3.7827148 4.187744 8.152405 5.3530273 13.10907c1.1652832 4.956665 1.7479248 10.369873 1.7479248 16.239594c0 6.4566956 -0.5826416 12.413391 -1.7479248 17.870087c-1.1652832 5.4349365 -2.949646 10.23941 -5.3530273 14.413452c-2.4033813 4.174011 -5.498657 7.6523743 -9.285889 10.435059c-3.7871704 2.7609558 -8.302612 4.6631775 -13.546448 5.7066956l0 -92.252625zm-17.807007 -1.6630859c1.0924683 0 2.4155884 0.021728516 3.9692383 0.065216064c1.578064 0.021728516 3.095337 0.065216064 4.551941 0.13043213l0 112.99234c0 1.500061 -0.10925293 2.6631165 -0.3277588 3.4892578c-0.21850586 0.8043518 -0.65545654 1.4239197 -1.3109741 1.8587341c-0.65545654 0.41305542 -1.529419 0.6739197 -2.6218872 0.7826233c-1.0924072 0.0869751 -2.5126343 0.13043213 -4.260559 0.13043213l0 -119.449036zm-46.866333 -12.815582c-3.4958496 0 -6.3362427 0.29345703 -8.521179 0.8804321c-2.1848755 0.5869751 -3.8964233 1.4565735 -5.1345215 2.6087952c-1.2380981 1.1304626 -2.0756836 2.5435486 -2.5126343 4.2392273c-0.43701172 1.6957092 -0.6555176 3.684906 -0.6555176 5.96756l0 113.18802c0 2.2826843 0.21850586 4.271881 0.6555176 5.96756c0.43695068 1.6957092 1.2745361 3.097931 2.5126343 4.206665c1.2380981 1.1087036 2.949646 1.9565735 5.1345215 2.5435486c2.1849365 0.5869751 5.0253296 0.88046265 8.521179 0.88046265l48.395752 0c3.1317139 0 5.72937 -0.32611084 7.7928467 -0.978302c2.0878296 -0.65219116 3.7629395 -1.5652466 5.0253296 -2.7391968c1.2866821 -1.1739502 2.1848755 -2.5870361 2.6947021 -4.239258c0.50982666 -1.6739807 0.7647095 -3.5544434 0.7647095 -5.6414795l0 -7.337158c3.058899 -0.5869751 6.020691 -1.3370056 8.885315 -2.250061c2.888977 -0.9130554 5.717224 -2.0544128 8.484741 -3.4240112l15.294373 26.805115c0.6555176 1.1087341 1.3837891 1.8913574 2.1849365 2.3479004c0.80114746 0.45651245 1.6022339 0.68478394 2.4033813 0.68478394c0.5826416 0 1.1410522 -0.08694458 1.6751099 -0.26086426c0.55841064 -0.15216064 1.0924683 -0.3587036 1.6022949 -0.6195984l6.5546875 -3.4240112c0.8739624 -0.45651245 1.6872559 -1.0434875 2.4398193 -1.7608948c0.7769165 -0.71743774 1.1652832 -1.5652771 1.1652832 -2.5435486c0 -0.8478699 -0.36413574 -1.7283325 -1.0924072 -2.641388l-21.849121 -25.826843c2.6218872 -2.413086 5.0010376 -5.195801 7.13739 -8.348053c2.1606445 -3.1740112 4.005615 -6.815399 5.535095 -10.924225c1.529419 -4.1088257 2.7311401 -8.706757 3.6051025 -13.793884c0.8739624 -5.087097 1.3109131 -10.761169 1.3109131 -17.022217c0 -7.3045654 -0.7889404 -13.761261 -2.3669434 -19.370117c-1.5537109 -5.608856 -3.7386475 -10.511169 -6.5547485 -14.70694c-2.791809 -4.217499 -6.105591 -7.761078 -9.941345 -10.630737c-3.8114624 -2.8696594 -7.9992065 -5.163208 -12.563232 -6.8806458c-4.539734 -1.7391663 -9.346558 -3.000061 -14.42041 -3.7827148c-5.0495605 -0.7826233 -10.196289 -1.1739197 -15.440063 -1.1739197z" fill-rule="evenodd"></path><path fill="#8eaebd" d="m255.76378 187.56955l63.306168 6.7356873l0 -6.7356873zm0 14.398758l63.306168 6.7356873l0 -6.7356873zm391.36346 6.1499786c3.007141 0 4.510681 1.3992004 4.510681 4.1976013c0 6.491638 -2.473877 9.737457 -7.42157 9.737457l-9.493286 0l2.727356 -13.935059zm-391.36346 8.248779l63.306168 6.7356873l0 -6.7356873zm275.0312 0l68.31506 6.7356873l1.2850342 -6.7356873zm-275.0312 14.374344l63.306168 6.760086l0 -6.760086zm0 14.398743l63.306168 6.7601013l0 -6.7601013zm386.85284 -1.195816c3.4266968 0 5.1400146 1.5537567 5.1400146 4.6612854c0 3.0912476 -0.6992798 5.6374817 -2.0979614 7.638672c-1.3811646 2.0011597 -3.4179077 3.00177 -6.1102905 3.00177l-11.93219 0l2.9108887 -15.301727zm-386.85284 15.594574l63.306168 6.7601013l0 -6.7601013zm0 14.545166l63.306168 6.7601013l0 -6.7601013zm68.131485 -86.51453l0 93.71393l37.238922 0l13.374542 -34.483795l1.7570496 0l0 34.483795l40.621887 0l1.9601135 -5.6170654l0 0l52.324524 5.177765l1.2850037 -6.7601013l-53.057373 0l4.4453125 -12.738892l0 0l50.080627 4.953827l1.2850037 -6.7601013l-50.73532 0l4.318207 -12.374573l0 0l0 0l0 0l0 0l0 0l47.859467 4.735916l1.2850037 -6.7601013l-48.43811 0l4.2414856 -12.154846l0 0l45.638977 4.5161896l1.3112183 -6.760086l-46.167175 0l4.160492 -11.922623l43.449036 4.283966l1.2850342 -6.7356873l-43.87854 0l4.0925903 -11.728073l41.228302 4.0650024l1.127655 -6.7356873l-41.42398 0l4.0147705 -11.505157l0 0l38.877777 3.8420868l1.2850037 -6.7356873l-71.22571 0l-17.229553 52.32361l-0.9703064 0l0 -52.32361l-24.336426 0l-20.95346 52.32361l-0.9703064 0l2.9109497 -52.32361zm169.83017 0l-17.727814 93.71393l68.157715 0l0.88464355 -4.7050476l0 0l43.108215 4.265747l1.2849731 -6.7601013l-43.924194 0l2.2658691 -12.051025l0 0l43.126892 4.2659607l1.2850342 -6.7601013l-43.942993 0l0.42218018 -2.2452393l-37.527374 0l2.097931 -11.396973l19.7229 0l60.66974 6.0035553l1.2849731 -6.7601013l-50.92749 0l2.4276123 -12.580673l0 0l49.94226 4.9420166l1.3112183 -6.760086l-50.90265 0l1.2714844 -6.589264l-30.63031 0l2.25531 -12.592804l33.04297 0l2.5957642 -7.4437866l0 0l46.53711 4.58844l1.1276855 -6.7356873l-46.916016 0l4.1951294 -12.03009l44.189453 4.3670197l1.2849731 -6.7356873zm116.97592 0l-17.727844 93.71393l55.124084 0c9.545776 0 16.94983 -3.0505981 22.21222 -9.151764c5.279907 -6.101166 7.919861 -13.65033 7.919861 -22.647522c0 -10.184891 -4.8341064 -16.131485 -14.502197 -17.839813l0.15734863 -0.90296936c5.1574707 -1.1876984 9.528259 -4.2301483 13.112244 -9.12735c3.6015015 -4.8972015 5.4022827 -11.144791 5.4022827 -18.742783c0 -5.2063293 -1.748291 -9.054123 -5.244934 -11.543411c-3.479126 -2.505539 -9.0824585 -3.758316 -16.809937 -3.758316z" fill-rule="evenodd"></path><path stroke="#000000" stroke-width="1.0" stroke-linejoin="round" stroke-linecap="butt" d="m255.76378 187.56955l63.306168 6.7356873l0 -6.7356873zm0 14.398758l63.306168 6.7356873l0 -6.7356873zm391.36346 6.1499786c3.007141 0 4.510681 1.3992004 4.510681 4.1976013c0 6.491638 -2.473877 9.737457 -7.42157 9.737457l-9.493286 0l2.727356 -13.935059zm-391.36346 8.248779l63.306168 6.7356873l0 -6.7356873zm275.0312 0l68.31506 6.7356873l1.2850342 -6.7356873zm-275.0312 14.374344l63.306168 6.760086l0 -6.760086zm0 14.398743l63.306168 6.7601013l0 -6.7601013zm386.85284 -1.195816c3.4266968 0 5.1400146 1.5537567 5.1400146 4.6612854c0 3.0912476 -0.6992798 5.6374817 -2.0979614 7.638672c-1.3811646 2.0011597 -3.4179077 3.00177 -6.1102905 3.00177l-11.93219 0l2.9108887 -15.301727zm-386.85284 15.594574l63.306168 6.7601013l0 -6.7601013zm0 14.545166l63.306168 6.7601013l0 -6.7601013zm68.131485 -86.51453l0 93.71393l37.238922 0l13.374542 -34.483795l1.7570496 0l0 34.483795l40.621887 0l1.9601135 -5.6170654l0 0l52.324524 5.177765l1.2850037 -6.7601013l-53.057373 0l4.4453125 -12.738892l0 0l50.080627 4.953827l1.2850037 -6.7601013l-50.73532 0l4.318207 -12.374573l0 0l0 0l0 0l0 0l0 0l47.859467 4.735916l1.2850037 -6.7601013l-48.43811 0l4.2414856 -12.154846l0 0l45.638977 4.5161896l1.3112183 -6.760086l-46.167175 0l4.160492 -11.922623l43.449036 4.283966l1.2850342 -6.7356873l-43.87854 0l4.0925903 -11.728073l41.228302 4.0650024l1.127655 -6.7356873l-41.42398 0l4.0147705 -11.505157l0 0l38.877777 3.8420868l1.2850037 -6.7356873l-71.22571 0l-17.229553 52.32361l-0.9703064 0l0 -52.32361l-24.336426 0l-20.95346 52.32361l-0.9703064 0l2.9109497 -52.32361zm169.83017 0l-17.727814 93.71393l68.157715 0l0.88464355 -4.7050476l0 0l43.108215 4.265747l1.2849731 -6.7601013l-43.924194 0l2.2658691 -12.051025l0 0l43.126892 4.2659607l1.2850342 -6.7601013l-43.942993 0l0.42218018 -2.2452393l-37.527374 0l2.097931 -11.396973l19.7229 0l60.66974 6.0035553l1.2849731 -6.7601013l-50.92749 0l2.4276123 -12.580673l0 0l49.94226 4.9420166l1.3112183 -6.760086l-50.90265 0l1.2714844 -6.589264l-30.63031 0l2.25531 -12.592804l33.04297 0l2.5957642 -7.4437866l0 0l46.53711 4.58844l1.1276855 -6.7356873l-46.916016 0l4.1951294 -12.03009l44.189453 4.3670197l1.2849731 -6.7356873zm116.97592 0l-17.727844 93.71393l55.124084 0c9.545776 0 16.94983 -3.0505981 22.21222 -9.151764c5.279907 -6.101166 7.919861 -13.65033 7.919861 -22.647522c0 -10.184891 -4.8341064 -16.131485 -14.502197 -17.839813l0.15734863 -0.90296936c5.1574707 -1.1876984 9.528259 -4.2301483 13.112244 -9.12735c3.6015015 -4.8972015 5.4022827 -11.144791 5.4022827 -18.742783c0 -5.2063293 -1.748291 -9.054123 -5.244934 -11.543411c-3.479126 -2.505539 -9.0824585 -3.758316 -16.809937 -3.758316z" fill-rule="evenodd"></path><path fill="#8eaebd" d="m298.10986 469.75345l82.48981 4.1412354c2.8666687 -1.2511902 6.903412 -2.6316223 12.110199 -4.1412354zm-37.20819 12.036133l100.83063 5.018463c1.0530701 -1.1696167 2.8374329 -2.8424377 5.3530884 -5.018463zm180.08887 12.036163l101.88367 4.998047c0.9067993 -1.1696167 2.4279175 -2.8356323 4.5632935 -4.998047zm-192.76947 0l104.604095 5.1408386l3.2469482 -5.1408386zm-6.493881 12.015747l105.96431 5.283661c0.35101318 -1.1696167 0.7166748 -2.0944214 1.0969238 -2.7744446l0.7897949 -2.5092163zm188.46947 0l105.39392 5.283661l2.413269 -5.283661zm-191.40927 12.036133l106.22757 5.2632446c0 -1.5775757 0.26327515 -3.3320312 0.7897949 -5.2632446zm186.53885 0l106.2276 5.2632446c0.17547607 -0.91119385 0.62890625 -2.6655884 1.3601685 -5.2632446zm201.92456 -18.299011l-10.223511 26.193909c-0.9067993 2.0128174 -2.6618652 3.3116455 -5.265259 3.8964233c-2.6034546 0.58483887 -6.508545 0.8772583 -11.715332 0.8772583l-15.927551 0l9.960205 -26.316345c0.55578613 -1.9312134 2.2231445 -3.1892395 5.002014 -3.7740479c2.7789307 -0.58480835 6.684021 -0.87719727 11.715332 -0.87719727zm-384.9532 30.335144l104.867386 5.2633057c-0.55578613 -1.1696167 -1.1847229 -2.9240723 -1.8867493 -5.2633057zm25.887772 12.158569l93.23981 4.6308594c-3.0421753 -1.1696167 -5.7333374 -2.7132568 -8.073486 -4.6308594zm350.15826 -61.547546c-23.89862 0 -41.42041 2.7404175 -52.565308 8.221283c-11.144897 5.467285 -18.95514 14.218994 -23.430603 26.255157c-1.9891357 5.1000366 -2.9837036 9.526855 -2.9837036 13.280518c0 7.276123 4.036743 12.648193 12.1102295 16.11621c8.102722 3.4680176 21.675476 5.2020874 40.718384 5.2020874c24.27893 0 42.078552 -2.7540894 53.398987 -8.262146c11.320374 -5.5216675 19.232971 -14.300537 23.737732 -26.33667c1.9598999 -5.1000977 2.9398193 -9.445343 2.9398193 -13.035797c0 -7.357666 -4.139099 -12.770538 -12.417358 -16.238586c-8.248962 -3.468048 -22.085022 -5.202057 -41.50818 -5.202057zm-170.91843 -12.648163c-28.578918 0 -49.47928 3.2572327 -62.70105 9.7717285c-13.192505 6.5144653 -22.47992 16.959412 -27.862244 31.334778c-2.5156555 7.0176697 -3.773468 12.321747 -3.773468 15.912201c0 8.527283 4.899658 14.837769 14.698975 18.931396c9.799316 4.093689 26.01941 6.140503 48.660217 6.140503c17.609528 0 32.162262 -1.0880127 43.658173 -3.264038l0.8344116 -4.085388l0 0l83.030975 4.085388c-2.515686 -1.0744019 -4.855835 -2.618042 -7.020447 -4.6308594l-75.89911 0l2.1104736 -10.332947l0 0l69.18152 3.437683c-0.7020874 -2.1760254 -1.0531006 -3.930481 -1.0531006 -5.2633057l-67.755554 0l0.8708191 -4.263611l0 0c-12.02243 2.0128174 -25.317352 3.019226 -39.884674 3.019226c-6.815674 0 -13.470428 -0.33325195 -19.964294 -0.9996338l12.417328 -32.84439c0.90682983 -2.5160217 3.3347168 -4.188843 7.2836914 -5.018463c3.9489746 -0.82962036 10.545227 -1.2444153 19.788788 -1.2444153c9.272766 0 19.203735 0.58480835 29.792847 1.754425l6.59964 -8.360291l79.41574 3.9742432c3.0421753 -1.591217 6.7279053 -2.9716492 11.057129 -4.141266l-90.341034 0l8.4062805 -10.648926c-3.9782104 -0.9248047 -10.238068 -1.7000122 -18.779602 -2.3256226c-8.512238 -0.62561035 -16.103058 -0.9384155 -22.77243 -0.9384155z" fill-rule="evenodd"></path><path stroke="#000000" stroke-width="1.0" stroke-linejoin="round" stroke-linecap="butt" d="m298.10986 469.75345l82.48981 4.1412354c2.8666687 -1.2511902 6.903412 -2.6316223 12.110199 -4.1412354zm-37.20819 12.036133l100.83063 5.018463c1.0530701 -1.1696167 2.8374329 -2.8424377 5.3530884 -5.018463zm180.08887 12.036163l101.88367 4.998047c0.9067993 -1.1696167 2.4279175 -2.8356323 4.5632935 -4.998047zm-192.76947 0l104.604095 5.1408386l3.2469482 -5.1408386zm-6.493881 12.015747l105.96431 5.283661c0.35101318 -1.1696167 0.7166748 -2.0944214 1.0969238 -2.7744446l0.7897949 -2.5092163zm188.46947 0l105.39392 5.283661l2.413269 -5.283661zm-191.40927 12.036133l106.22757 5.2632446c0 -1.5775757 0.26327515 -3.3320312 0.7897949 -5.2632446zm186.53885 0l106.2276 5.2632446c0.17547607 -0.91119385 0.62890625 -2.6655884 1.3601685 -5.2632446zm201.92456 -18.299011l-10.223511 26.193909c-0.9067993 2.0128174 -2.6618652 3.3116455 -5.265259 3.8964233c-2.6034546 0.58483887 -6.508545 0.8772583 -11.715332 0.8772583l-15.927551 0l9.960205 -26.316345c0.55578613 -1.9312134 2.2231445 -3.1892395 5.002014 -3.7740479c2.7789307 -0.58480835 6.684021 -0.87719727 11.715332 -0.87719727zm-384.9532 30.335144l104.867386 5.2633057c-0.55578613 -1.1696167 -1.1847229 -2.9240723 -1.8867493 -5.2633057zm25.887772 12.158569l93.23981 4.6308594c-3.0421753 -1.1696167 -5.7333374 -2.7132568 -8.073486 -4.6308594zm350.15826 -61.547546c-23.89862 0 -41.42041 2.7404175 -52.565308 8.221283c-11.144897 5.467285 -18.95514 14.218994 -23.430603 26.255157c-1.9891357 5.1000366 -2.9837036 9.526855 -2.9837036 13.280518c0 7.276123 4.036743 12.648193 12.1102295 16.11621c8.102722 3.4680176 21.675476 5.2020874 40.718384 5.2020874c24.27893 0 42.078552 -2.7540894 53.398987 -8.262146c11.320374 -5.5216675 19.232971 -14.300537 23.737732 -26.33667c1.9598999 -5.1000977 2.9398193 -9.445343 2.9398193 -13.035797c0 -7.357666 -4.139099 -12.770538 -12.417358 -16.238586c-8.248962 -3.468048 -22.085022 -5.202057 -41.50818 -5.202057zm-170.91843 -12.648163c-28.578918 0 -49.47928 3.2572327 -62.70105 9.7717285c-13.192505 6.5144653 -22.47992 16.959412 -27.862244 31.334778c-2.5156555 7.0176697 -3.773468 12.321747 -3.773468 15.912201c0 8.527283 4.899658 14.837769 14.698975 18.931396c9.799316 4.093689 26.01941 6.140503 48.660217 6.140503c17.609528 0 32.162262 -1.0880127 43.658173 -3.264038l0.8344116 -4.085388l0 0l83.030975 4.085388c-2.515686 -1.0744019 -4.855835 -2.618042 -7.020447 -4.6308594l-75.89911 0l2.1104736 -10.332947l0 0l69.18152 3.437683c-0.7020874 -2.1760254 -1.0531006 -3.930481 -1.0531006 -5.2633057l-67.755554 0l0.8708191 -4.263611l0 0c-12.02243 2.0128174 -25.317352 3.019226 -39.884674 3.019226c-6.815674 0 -13.470428 -0.33325195 -19.964294 -0.9996338l12.417328 -32.84439c0.90682983 -2.5160217 3.3347168 -4.188843 7.2836914 -5.018463c3.9489746 -0.82962036 10.545227 -1.2444153 19.788788 -1.2444153c9.272766 0 19.203735 0.58480835 29.792847 1.754425l6.59964 -8.360291l79.41574 3.9742432c3.0421753 -1.591217 6.7279053 -2.9716492 11.057129 -4.141266l-90.341034 0l8.4062805 -10.648926c-3.9782104 -0.9248047 -10.238068 -1.7000122 -18.779602 -2.3256226c-8.512238 -0.62561035 -16.103058 -0.9384155 -22.77243 -0.9384155z" fill-rule="evenodd"></path><path fill="#8eaebd" d="m87.27301 370.5807l16.662186 1.2207031E-4l5.148796 -15.868225l5.1487885 15.868225l16.662193 -1.2207031E-4l-13.480064 9.806976l5.149002 15.868134l-13.479919 -9.807159l-13.479927 9.807159l5.149002 -15.868134z" fill-rule="evenodd"></path><path stroke="#000000" stroke-width="1.0" stroke-linejoin="round" stroke-linecap="butt" d="m87.27301 370.5807l16.662186 1.2207031E-4l5.148796 -15.868225l5.1487885 15.868225l16.662193 -1.2207031E-4l-13.480064 9.806976l5.149002 15.868134l-13.479919 -9.807159l-13.479927 9.807159l5.149002 -15.868134z" fill-rule="evenodd"></path><path fill="#8eaebd" d="m832.7481 362.36417l16.66217 9.1552734E-5l5.1488037 -15.868195l5.1487427 15.868195l16.662231 -9.1552734E-5l-13.480103 9.806976l5.149048 15.868134l-13.479919 -9.807159l-13.47998 9.807159l5.149048 -15.868134z" fill-rule="evenodd"></path><path stroke="#000000" stroke-width="1.0" stroke-linejoin="round" stroke-linecap="butt" d="m832.7481 362.36417l16.66217 9.1552734E-5l5.1488037 -15.868195l5.1487427 15.868195l16.662231 -9.1552734E-5l-13.480103 9.806976l5.149048 15.868134l-13.479919 -9.807159l-13.47998 9.807159l5.149048 -15.868134z" fill-rule="evenodd"></path></g></svg>

