<svg id="svg" version="1.1" width="500" height="500" xmlns="http://www.w3.org/2000/svg" xmlns:xlink="http://www.w3.org/1999/xlink" style="display: block;"><g id="svgg"><path id="path0" d="M119.600 89.323 C 108.443 91.062,107.216 91.326,106.745 92.088 C 106.503 92.480,105.617 92.800,104.776 92.800 C 103.429 92.800,100.098 94.137,91.600 98.089 C 88.425 99.565,84.276 102.931,84.879 103.541 C 85.465 104.133,92.793 106.036,97.326 106.774 C 103.098 107.714,103.887 108.789,101.836 112.922 C 97.199 122.270,98.991 123.486,120.254 125.430 C 129.267 126.254,130.584 125.563,129.873 120.380 C 129.605 118.424,129.817 115.108,130.343 113.011 C 132.405 104.807,133.018 102.636,134.533 98.174 C 136.872 91.291,134.180 87.386,127.600 88.113 C 127.160 88.161,123.560 88.706,119.600 89.323 M99.106 132.890 C 92.495 141.620,95.703 145.282,111.600 147.152 C 116.000 147.669,120.877 148.271,122.437 148.489 C 126.735 149.090,128.133 147.072,128.311 140.011 C 128.518 131.789,128.656 131.860,110.379 130.743 L 101.158 130.180 99.106 132.890 M86.444 151.368 C 76.447 152.473,68.237 156.666,65.624 162.000 C 64.298 164.707,59.986 171.390,59.171 172.000 C 58.162 172.755,49.999 186.018,47.841 190.408 C 45.270 195.639,42.734 202.126,37.370 217.200 L 33.384 228.400 33.292 243.200 C 33.227 253.723,33.522 259.109,34.315 261.838 C 35.243 265.035,35.253 266.007,34.373 267.650 C 33.441 269.391,33.522 269.902,35.058 271.980 C 36.016 273.275,36.800 275.441,36.800 276.793 C 36.800 279.622,38.668 284.486,40.555 286.571 C 42.372 288.579,46.461 288.379,54.010 285.912 C 57.524 284.764,61.840 283.484,63.600 283.068 C 70.553 281.426,74.128 280.678,77.005 280.264 C 78.658 280.026,80.209 279.509,80.452 279.115 C 80.695 278.722,81.752 278.400,82.800 278.400 C 83.848 278.400,84.928 278.040,85.200 277.600 C 85.472 277.160,86.552 276.800,87.600 276.800 C 88.648 276.800,89.728 276.440,90.000 276.000 C 90.272 275.560,91.438 275.200,92.590 275.200 C 93.743 275.200,95.792 274.862,97.143 274.449 C 98.494 274.036,102.480 272.921,106.000 271.971 C 109.520 271.021,114.740 269.147,117.600 267.806 C 120.460 266.465,123.669 265.132,124.732 264.844 C 126.576 264.345,126.672 263.993,126.825 257.161 C 126.913 253.222,127.259 242.366,127.593 233.035 L 128.201 216.069 125.461 211.835 C 116.130 197.415,115.219 182.651,122.771 168.258 C 129.878 154.712,127.749 152.841,103.800 151.597 C 99.069 151.351,94.749 151.030,94.200 150.885 C 93.650 150.740,90.160 150.957,86.444 151.368 " stroke="none" fill="#cf6866" fill-rule="evenodd"></path><path id="path1" d="M375.200 1.840 C 375.200 2.852,375.522 4.022,375.914 4.440 C 376.307 4.858,376.851 9.340,377.122 14.400 C 377.614 23.570,378.467 34.458,379.941 50.400 C 380.369 55.020,381.133 63.300,381.639 68.800 C 382.145 74.300,382.684 81.860,382.837 85.600 C 382.990 89.340,383.428 93.840,383.810 95.600 C 384.192 97.360,384.437 101.320,384.354 104.400 C 384.271 107.480,384.500 110.573,384.862 111.273 C 385.224 111.973,385.724 115.933,385.972 120.073 C 386.494 128.774,387.412 139.058,390.393 169.600 C 390.843 174.220,391.406 181.240,391.643 185.200 C 391.880 189.160,392.402 193.120,392.803 194.000 C 393.205 194.880,393.711 199.200,393.929 203.600 C 394.146 208.000,394.701 215.470,395.162 220.200 C 395.623 224.930,396.376 232.670,396.835 237.400 C 397.295 242.130,397.933 249.488,398.253 253.751 C 398.573 258.014,399.097 261.764,399.418 262.084 C 399.738 262.405,400.000 204.347,400.000 133.069 L 400.000 3.470 397.800 2.442 C 396.590 1.876,394.975 1.095,394.211 0.707 C 390.739 -1.060,375.200 -0.133,375.200 1.840 M208.000 54.304 C 208.000 54.692,211.774 55.266,216.386 55.580 C 224.001 56.099,225.040 56.366,227.696 58.476 C 229.304 59.754,231.201 60.798,231.910 60.796 C 234.165 60.789,240.726 63.454,241.146 64.548 C 241.625 65.795,239.902 65.904,236.457 64.844 C 232.564 63.647,223.485 62.435,214.800 61.953 C 210.400 61.709,205.211 61.307,203.270 61.058 C 199.224 60.541,186.875 62.869,183.011 64.878 C 182.247 65.275,180.522 65.600,179.179 65.600 C 173.521 65.600,145.560 85.164,145.612 89.086 C 145.620 89.699,145.818 89.725,146.212 89.166 C 146.536 88.708,148.420 87.835,150.400 87.226 C 152.380 86.618,154.743 85.463,155.652 84.660 C 157.422 83.095,159.729 82.800,161.485 83.912 C 162.806 84.749,162.601 84.895,155.028 88.531 C 145.980 92.875,142.829 95.496,137.868 102.804 C 132.154 111.221,132.855 118.628,139.121 116.033 C 140.419 115.495,142.268 115.304,143.229 115.609 C 144.221 115.924,146.234 115.651,147.888 114.978 C 149.490 114.326,152.878 113.407,155.419 112.935 C 157.959 112.463,160.595 111.519,161.276 110.838 C 161.957 110.157,163.604 109.600,164.936 109.600 C 166.596 109.600,168.064 108.844,169.600 107.200 C 171.259 105.424,172.564 104.800,174.623 104.800 C 176.171 104.800,177.865 104.245,178.444 103.547 C 179.860 101.841,183.562 100.000,185.576 100.000 C 187.010 100.000,193.600 96.471,193.600 95.703 C 193.600 95.191,185.224 89.894,182.600 88.746 C 178.756 87.066,179.384 85.957,184.000 86.277 C 187.361 86.510,188.000 86.334,188.000 85.175 C 188.000 83.422,192.916 84.046,197.837 86.423 C 202.239 88.550,203.316 88.364,200.400 85.980 C 196.771 83.014,198.281 81.271,204.753 80.960 C 209.817 80.716,212.242 81.638,211.516 83.530 C 211.302 84.088,211.751 85.051,212.513 85.672 C 213.742 86.672,213.839 86.639,213.368 85.382 C 213.030 84.480,213.423 83.377,214.447 82.353 C 216.349 80.451,215.855 79.200,213.200 79.200 C 212.152 79.200,211.072 78.840,210.800 78.400 C 210.528 77.960,209.287 77.600,208.041 77.600 C 205.429 77.600,200.913 74.473,203.458 74.427 C 210.273 74.302,225.235 80.069,230.795 84.963 C 233.832 87.636,236.676 87.740,234.501 85.097 C 233.438 83.806,231.848 78.285,232.385 77.749 C 232.677 77.456,234.719 79.193,236.922 81.608 C 247.887 93.629,248.800 94.502,248.800 92.965 C 248.800 90.912,247.172 87.793,242.891 81.642 C 239.546 76.836,238.899 74.617,241.081 75.436 C 244.778 76.822,245.600 76.862,245.600 75.654 C 245.600 74.964,245.960 74.400,246.400 74.400 C 246.840 74.400,247.200 75.120,247.200 76.000 C 247.200 76.880,246.769 77.600,246.243 77.600 C 245.717 77.600,246.404 78.770,247.769 80.200 C 249.135 81.630,251.006 84.150,251.926 85.800 C 252.847 87.450,254.320 90.071,255.200 91.624 C 256.080 93.178,256.811 95.068,256.825 95.824 C 256.861 97.733,259.200 100.853,259.200 98.992 C 259.200 97.408,256.983 88.716,256.440 88.174 C 256.229 87.962,256.402 87.143,256.825 86.353 C 257.836 84.465,256.993 82.400,255.212 82.400 C 253.626 82.400,251.490 80.243,252.287 79.446 C 254.935 76.798,270.298 93.489,270.429 99.157 C 270.486 101.647,274.230 105.163,276.977 105.307 C 280.893 105.512,281.713 104.437,281.110 99.891 C 280.765 97.294,280.885 96.000,281.469 96.000 C 282.834 96.000,283.998 98.797,284.025 102.147 C 284.051 105.183,285.463 108.000,286.960 108.000 C 287.952 108.000,289.600 104.440,289.600 102.296 C 289.600 99.407,291.946 101.212,293.117 105.000 C 293.360 105.785,294.333 106.400,295.331 106.400 C 296.311 106.400,298.110 107.356,299.329 108.524 L 301.546 110.647 302.372 108.474 C 304.732 102.267,303.446 85.965,300.729 87.644 C 299.500 88.404,297.574 86.911,294.456 82.781 C 290.011 76.894,286.177 74.035,284.168 75.110 C 282.916 75.780,282.208 75.485,280.317 73.505 C 275.082 68.023,264.014 61.531,254.433 58.324 C 248.561 56.358,247.340 56.344,249.078 58.265 C 251.121 60.522,249.878 60.810,245.133 59.177 C 242.750 58.357,240.800 57.856,240.800 58.064 C 240.800 58.271,239.720 57.883,238.400 57.200 C 237.080 56.517,236.000 56.142,236.000 56.366 C 236.000 56.590,234.729 56.059,233.176 55.186 C 230.164 53.495,208.000 52.718,208.000 54.304 M258.196 62.031 C 262.690 63.908,265.766 67.213,263.000 67.192 C 261.223 67.179,253.530 62.361,254.020 61.568 C 254.636 60.571,254.728 60.581,258.196 62.031 M259.853 73.559 C 260.343 75.030,257.170 74.464,255.333 72.752 C 252.780 70.374,254.020 69.202,257.055 71.124 C 258.440 72.001,259.699 73.096,259.853 73.559 M263.885 71.112 C 264.642 71.592,264.703 71.966,264.085 72.347 C 263.071 72.974,261.600 72.268,261.600 71.153 C 261.600 70.223,262.457 70.207,263.885 71.112 M199.600 74.411 C 199.600 76.126,197.275 75.878,196.938 74.127 C 196.732 73.058,197.058 72.732,198.127 72.938 C 198.937 73.094,199.600 73.757,199.600 74.411 M281.935 76.486 C 283.647 77.143,283.545 79.198,281.800 79.210 C 280.799 79.217,281.366 80.117,283.791 82.369 C 286.067 84.483,287.019 85.940,286.688 86.803 C 286.145 88.218,284.969 87.367,279.499 81.600 C 276.450 78.386,276.114 77.234,278.400 77.832 C 279.440 78.104,280.000 77.856,280.000 77.125 C 280.000 75.856,280.158 75.804,281.935 76.486 M166.642 77.989 C 166.729 78.423,166.170 78.899,165.400 79.048 C 164.524 79.216,164.000 78.824,164.000 78.000 C 164.000 76.608,166.364 76.598,166.642 77.989 M267.056 79.000 C 267.361 81.150,265.813 81.376,264.314 79.400 C 262.766 77.362,262.964 76.655,265.000 76.944 C 266.157 77.109,266.891 77.843,267.056 79.000 M263.172 93.546 C 264.938 97.006,266.400 98.350,266.400 96.512 C 266.400 94.692,263.724 90.411,262.584 90.405 C 261.863 90.401,262.034 91.314,263.172 93.546 M-0.000 114.312 C -0.000 130.667,0.051 131.200,1.600 131.200 C 2.819 131.200,3.200 130.667,3.200 128.960 C 3.200 126.246,4.500 124.800,6.939 124.800 C 8.163 124.800,9.177 123.992,10.036 122.331 L 11.313 119.861 23.856 120.315 C 30.755 120.564,40.180 121.118,44.800 121.546 C 78.454 124.664,89.600 125.315,89.600 124.160 C 89.600 123.710,87.530 123.144,85.000 122.902 C 79.832 122.408,72.748 121.412,52.800 118.375 C 49.940 117.939,46.160 117.460,44.400 117.311 C 42.640 117.161,38.680 116.596,35.600 116.055 C 32.520 115.514,28.156 114.777,25.902 114.418 C 18.260 113.201,16.541 111.055,21.447 108.856 C 24.966 107.278,24.739 106.894,18.786 104.364 C 14.652 102.607,13.664 101.859,14.016 100.750 C 14.390 99.571,13.796 99.284,10.230 98.923 C 7.903 98.688,4.650 98.254,3.000 97.960 L -0.000 97.425 -0.000 114.312 M96.626 125.788 C 97.976 126.439,98.696 126.424,99.386 125.734 C 100.098 125.022,99.664 124.813,97.560 124.854 C 94.968 124.905,94.911 124.962,96.626 125.788 M309.826 134.239 C 308.615 135.014,308.538 140.177,309.516 155.200 C 310.737 173.971,311.655 176.170,318.712 177.229 C 323.992 178.020,326.400 180.145,326.400 184.011 C 326.400 185.713,326.703 187.293,327.074 187.522 C 327.445 187.751,327.829 192.526,327.927 198.132 C 328.025 203.738,328.308 208.651,328.555 209.051 C 328.802 209.450,329.330 215.767,329.730 223.088 C 330.489 237.011,331.376 250.631,332.839 270.800 C 333.318 277.400,333.887 287.480,334.104 293.200 C 334.322 298.920,334.840 305.760,335.257 308.400 C 335.673 311.040,335.978 316.080,335.934 319.600 C 335.891 323.120,336.277 328.880,336.792 332.400 C 337.308 335.920,337.579 340.712,337.395 343.050 C 336.674 352.196,338.881 356.440,349.330 366.003 C 355.317 371.483,356.083 372.494,355.911 374.702 C 355.683 377.654,356.234 379.635,358.992 385.761 C 361.246 390.770,361.840 391.238,365.134 390.608 L 367.366 390.182 366.931 381.291 C 366.691 376.401,366.076 367.720,365.564 362.000 C 365.051 356.280,364.544 347.783,364.436 343.118 C 364.329 338.453,363.950 334.167,363.595 333.592 C 363.240 333.017,362.801 328.014,362.619 322.474 C 362.309 313.004,361.475 298.473,360.457 284.800 C 360.211 281.500,359.817 276.100,359.581 272.800 C 357.861 248.769,356.355 229.024,355.188 215.200 C 354.024 201.410,352.680 163.771,353.274 161.608 C 353.578 160.504,353.865 158.700,353.913 157.600 C 353.995 155.716,354.290 155.586,359.007 155.362 C 365.620 155.047,367.110 153.263,365.241 147.896 C 364.571 145.973,364.018 143.924,364.012 143.343 C 363.991 141.494,362.019 140.214,358.356 139.671 C 348.689 138.240,337.537 136.979,320.000 135.335 C 316.260 134.985,312.660 134.455,312.000 134.157 C 311.340 133.860,310.362 133.897,309.826 134.239 M0.800 137.600 C -0.132 138.202,0.102 138.378,1.847 138.388 C 3.144 138.395,3.885 138.062,3.600 137.600 C 2.986 136.607,2.337 136.607,0.800 137.600 M290.099 189.232 C 288.874 192.424,293.066 194.820,295.543 192.343 C 297.482 190.403,297.044 189.049,294.300 188.500 C 290.831 187.806,290.632 187.841,290.099 189.232 M204.422 298.468 C 205.102 300.612,206.703 302.400,207.943 302.400 C 208.414 302.400,208.800 302.760,208.800 303.200 C 208.800 303.640,209.374 304.000,210.077 304.000 C 210.779 304.000,212.309 304.646,213.477 305.436 C 214.644 306.225,217.400 307.705,219.600 308.723 C 221.800 309.742,224.225 310.896,224.989 311.288 C 225.753 311.679,226.941 312.000,227.629 312.000 C 231.976 312.000,236.238 317.511,234.621 321.040 C 233.008 324.558,232.163 326.870,231.200 330.400 C 230.660 332.380,229.940 334.720,229.600 335.600 C 226.287 344.182,224.556 359.950,226.572 363.179 C 227.335 364.401,227.335 365.314,226.572 367.425 C 225.147 371.366,225.380 373.715,227.452 376.305 L 229.296 378.609 232.166 375.256 C 235.308 371.586,235.679 370.179,236.827 357.600 C 237.248 352.980,237.979 345.420,238.451 340.800 C 238.923 336.180,239.305 331.751,239.301 330.957 C 239.297 330.163,239.902 329.290,240.646 329.015 C 242.800 328.222,243.221 326.952,241.966 325.036 C 241.325 324.057,240.789 322.074,240.775 320.628 C 240.752 318.250,240.646 318.136,239.669 319.424 C 238.699 320.702,238.539 320.716,238.095 319.558 C 236.655 315.806,238.615 313.606,241.858 315.334 C 244.343 316.657,245.545 318.474,245.575 320.953 C 245.589 322.137,245.960 323.328,246.400 323.600 C 246.840 323.872,247.200 324.798,247.200 325.658 C 247.200 326.518,247.560 327.937,248.000 328.811 C 248.440 329.685,249.160 331.115,249.600 331.989 C 250.040 332.863,250.400 334.128,250.400 334.800 C 250.400 335.472,250.730 336.647,251.132 337.411 C 251.535 338.175,253.206 341.588,254.846 344.996 C 256.486 348.404,258.316 351.598,258.914 352.094 C 259.511 352.590,260.000 353.492,260.000 354.098 C 260.000 354.733,260.827 355.200,261.953 355.200 C 264.639 355.200,265.320 356.685,263.287 358.109 C 262.359 358.759,261.600 359.702,261.600 360.205 C 261.600 360.866,261.866 360.854,262.560 360.160 C 263.088 359.632,264.258 359.189,265.160 359.175 C 270.618 359.090,267.157 346.611,258.513 335.213 C 257.351 333.680,255.365 330.800,254.100 328.813 C 252.835 326.826,251.574 325.020,251.299 324.800 C 251.023 324.580,250.300 323.320,249.692 322.000 C 249.084 320.680,248.220 318.802,247.772 317.827 C 247.207 316.595,247.227 315.731,247.839 314.994 C 249.189 313.368,246.582 312.161,241.635 312.123 C 238.445 312.098,236.951 311.669,235.586 310.387 C 234.347 309.223,233.668 308.995,233.444 309.668 C 232.669 311.992,227.259 308.946,224.442 304.600 C 222.968 302.326,218.298 301.423,217.200 303.200 C 216.443 304.425,212.321 304.151,211.200 302.800 C 210.652 302.140,209.728 301.600,209.146 301.600 C 208.564 301.600,207.618 300.637,207.044 299.459 C 205.671 296.643,203.593 295.857,204.422 298.468 " stroke="none" fill="#031424" fill-rule="evenodd"></path><path id="path2" d="M0.000 29.600 C 0.000 54.078,0.189 59.200,1.092 59.200 C 2.691 59.200,6.400 56.073,6.400 54.726 C 6.400 53.147,9.628 48.327,13.518 44.099 C 16.712 40.626,17.285 40.465,21.000 41.995 C 22.073 42.436,22.400 42.177,22.400 40.886 C 22.400 39.111,25.048 38.460,26.000 40.000 C 26.792 41.282,27.780 40.928,28.232 39.200 C 28.486 38.228,29.323 37.600,30.363 37.600 C 31.306 37.600,32.910 36.700,33.930 35.600 C 34.949 34.500,36.148 33.600,36.594 33.600 C 37.039 33.600,37.860 33.051,38.417 32.379 C 38.974 31.708,41.678 30.118,44.427 28.846 C 47.175 27.574,49.667 26.138,49.966 25.655 C 50.718 24.438,55.798 22.400,58.079 22.400 C 59.159 22.400,60.475 21.619,61.163 20.569 C 62.861 17.977,71.103 16.154,74.907 17.530 C 78.130 18.695,80.535 18.096,81.213 15.959 C 81.485 15.102,82.359 14.400,83.156 14.400 C 83.952 14.400,85.059 13.852,85.615 13.182 C 86.218 12.455,87.249 12.162,88.170 12.454 C 89.095 12.747,90.323 12.394,91.229 11.573 C 92.692 10.250,94.635 10.253,97.800 11.583 C 98.803 12.004,99.200 11.800,99.200 10.860 C 99.200 9.063,101.111 8.482,103.253 9.628 C 104.633 10.367,105.699 10.359,108.016 9.595 C 109.992 8.943,111.464 8.868,112.369 9.375 C 113.417 9.961,114.261 9.616,115.979 7.898 C 118.217 5.660,118.236 5.657,126.285 6.147 C 132.328 6.515,134.663 6.378,135.603 5.597 C 136.665 4.716,137.220 4.903,139.212 6.812 C 141.492 8.996,141.670 9.033,144.847 7.985 C 147.469 7.119,148.839 7.092,151.675 7.851 C 153.626 8.373,156.123 8.800,157.222 8.800 C 159.248 8.800,161.650 9.876,164.206 11.929 C 164.979 12.551,166.811 13.014,168.277 12.959 C 170.341 12.881,171.549 13.483,173.628 15.629 C 175.105 17.153,177.025 18.400,177.894 18.400 C 178.763 18.400,180.132 18.996,180.937 19.724 C 182.259 20.921,182.535 20.929,183.800 19.811 C 186.308 17.596,191.734 17.196,192.947 19.137 C 193.518 20.052,194.723 20.800,195.626 20.800 C 196.528 20.800,198.602 22.060,200.235 23.600 C 201.868 25.140,203.563 26.400,204.002 26.400 C 204.441 26.400,204.811 27.930,204.825 29.800 C 204.848 32.790,204.978 33.032,205.908 31.807 C 206.906 30.494,207.047 30.505,208.407 32.007 C 210.120 33.901,212.232 34.053,213.883 32.403 C 215.487 30.798,219.215 29.435,220.572 29.955 C 222.033 30.516,220.460 33.600,218.713 33.600 C 216.497 33.600,217.858 36.382,220.207 36.653 C 221.413 36.792,222.400 37.401,222.400 38.006 C 222.400 39.740,223.991 40.352,230.000 40.934 C 238.696 41.775,241.948 42.646,242.250 44.212 C 242.490 45.458,241.658 45.600,234.106 45.600 C 229.361 45.600,225.479 45.949,225.200 46.400 C 224.888 46.904,226.792 47.200,230.353 47.200 C 233.584 47.200,236.000 47.542,236.000 48.000 C 236.000 48.480,232.800 48.800,228.000 48.800 C 221.568 48.800,220.000 48.574,220.000 47.647 C 220.000 46.037,218.438 45.242,217.370 46.310 C 216.881 46.799,215.133 47.200,213.487 47.200 C 211.841 47.200,210.272 47.560,210.000 48.000 C 209.728 48.440,208.288 48.800,206.800 48.800 C 205.312 48.800,203.872 49.160,203.600 49.600 C 203.328 50.040,201.888 50.400,200.400 50.400 C 198.912 50.400,197.472 50.760,197.200 51.200 C 196.928 51.640,195.281 52.000,193.540 52.000 C 188.534 52.000,184.579 53.592,182.785 56.330 C 181.792 57.846,178.869 59.981,175.185 61.880 C 164.200 67.544,163.341 68.087,157.857 72.849 C 154.855 75.455,151.232 78.400,149.803 79.394 C 148.375 80.387,147.005 81.818,146.758 82.573 C 146.511 83.329,144.791 86.209,142.936 88.973 C 139.260 94.453,138.744 95.470,135.724 103.200 C 131.929 112.914,131.777 113.678,132.585 119.004 C 133.882 127.558,129.011 129.622,114.200 126.797 C 111.739 126.328,111.200 126.456,111.200 127.512 C 111.200 128.588,112.247 128.800,117.553 128.800 C 121.047 128.800,124.128 129.160,124.400 129.600 C 124.672 130.040,125.717 130.400,126.723 130.400 C 131.369 130.400,132.708 143.287,128.661 149.047 C 127.375 150.878,127.267 151.517,128.081 152.498 C 128.648 153.181,129.031 155.583,128.966 158.051 L 128.851 162.400 131.978 162.400 C 133.698 162.400,135.328 162.760,135.600 163.200 C 135.872 163.640,136.757 164.000,137.566 164.000 C 138.923 164.000,145.123 166.961,149.400 169.652 C 150.390 170.275,151.200 171.238,151.200 171.792 C 151.200 172.347,151.532 172.800,151.939 172.800 C 154.437 172.800,157.600 177.060,157.600 180.424 C 157.600 182.339,157.960 184.128,158.400 184.400 C 158.840 184.672,159.200 185.735,159.200 186.762 C 159.200 189.574,161.329 189.955,161.872 187.240 C 162.136 185.918,163.635 183.956,165.523 182.461 C 170.026 178.894,173.234 172.811,174.414 165.600 C 175.472 159.135,177.628 154.412,182.022 148.938 C 183.550 147.034,184.800 144.676,184.800 143.698 C 184.800 142.720,185.199 141.521,185.686 141.034 C 186.224 140.496,186.616 136.276,186.686 130.274 C 186.804 120.048,188.857 113.649,192.462 112.265 C 193.088 112.025,193.600 111.387,193.600 110.848 C 193.600 102.319,216.057 98.672,230.191 104.905 C 232.276 105.824,235.512 106.414,238.591 106.435 C 243.458 106.470,250.537 107.870,251.695 109.028 C 252.009 109.343,253.085 109.600,254.086 109.600 C 255.087 109.600,256.099 109.913,256.335 110.295 C 256.724 110.924,261.796 112.162,264.800 112.360 C 266.561 112.477,269.528 113.502,273.600 115.399 C 275.580 116.322,278.100 117.452,279.200 117.910 C 280.300 118.368,282.156 119.385,283.323 120.171 C 284.491 120.957,286.206 121.600,287.134 121.600 C 288.062 121.600,289.537 121.960,290.411 122.400 C 291.285 122.840,292.715 123.560,293.589 124.000 C 294.463 124.440,296.173 124.811,297.389 124.825 C 301.968 124.878,304.000 128.396,304.000 136.272 C 304.000 139.514,304.701 146.809,305.558 152.483 C 308.013 168.732,307.350 171.891,300.532 176.418 C 296.325 179.211,285.652 184.000,283.634 184.000 C 280.768 184.000,278.409 187.824,278.850 191.754 C 279.350 196.204,280.782 201.660,281.739 202.760 C 282.103 203.178,282.400 204.168,282.400 204.960 C 282.400 206.713,283.456 206.819,284.800 205.200 C 286.347 203.336,287.199 203.692,293.287 208.738 C 299.771 214.112,301.415 218.660,298.881 224.216 C 298.233 225.637,297.534 228.600,297.328 230.800 C 296.940 234.939,296.213 238.719,295.404 240.800 C 295.148 241.460,294.343 243.620,293.617 245.599 C 292.837 247.724,291.714 249.310,290.876 249.472 C 287.361 250.149,282.083 240.736,285.048 239.077 C 285.792 238.661,286.400 237.772,286.400 237.102 C 286.400 236.111,286.020 236.183,284.365 237.485 C 281.262 239.926,270.248 239.315,267.482 236.548 C 266.620 235.686,256.151 235.908,255.600 236.800 C 254.523 238.542,250.539 237.642,248.854 235.277 C 246.990 232.658,246.551 225.769,248.147 224.173 C 248.667 223.653,248.869 223.002,248.595 222.728 C 248.321 222.454,247.175 223.152,246.048 224.279 C 243.959 226.368,243.361 229.110,244.800 230.000 C 245.240 230.272,245.600 233.512,245.600 237.200 C 245.600 240.888,245.240 244.128,244.800 244.400 C 244.360 244.672,244.000 245.718,244.000 246.724 C 244.000 248.885,242.055 253.026,240.392 254.406 C 237.903 256.472,242.941 257.851,246.338 256.033 C 247.415 255.457,248.231 255.696,249.630 256.999 C 250.867 258.152,251.597 258.409,251.811 257.766 C 252.354 256.139,254.093 256.690,255.050 258.791 C 256.397 261.747,253.081 263.200,244.991 263.200 C 237.730 263.200,235.200 261.740,235.200 257.552 C 235.200 254.220,232.386 252.946,228.951 254.722 C 227.591 255.425,225.812 256.000,224.997 256.000 C 218.983 256.000,216.844 265.801,222.152 269.040 C 223.786 270.037,223.359 272.156,220.935 275.079 L 218.713 277.757 214.905 275.187 C 212.331 273.450,210.529 271.416,209.342 268.909 C 207.077 264.124,204.404 263.538,201.359 267.157 C 198.740 270.269,198.117 270.225,195.987 266.779 C 192.746 261.535,188.865 260.047,184.895 262.526 C 182.877 263.787,180.947 262.890,179.932 260.221 C 179.183 258.252,178.999 258.159,178.304 259.400 C 176.715 262.240,171.200 257.030,171.200 252.688 C 171.200 251.826,170.613 249.986,169.896 248.599 C 167.779 244.506,166.571 236.991,166.533 227.689 C 166.512 222.663,166.138 218.618,165.649 218.129 C 165.182 217.662,164.800 216.452,164.800 215.440 C 164.800 214.428,164.080 212.880,163.200 212.000 C 161.413 210.213,161.161 207.916,162.480 205.450 C 163.196 204.112,163.051 203.496,161.703 202.147 C 159.283 199.727,159.140 200.215,157.943 214.949 C 156.282 235.390,155.193 239.918,152.477 237.664 C 151.775 237.081,151.200 235.769,151.200 234.749 C 151.200 233.729,150.840 232.672,150.400 232.400 C 149.960 232.128,149.600 230.885,149.600 229.637 C 149.600 227.560,149.313 227.336,146.200 226.994 C 140.111 226.324,139.200 227.550,139.200 236.418 C 139.200 244.618,139.363 244.852,143.381 242.403 C 146.807 240.314,146.905 240.336,148.422 243.533 C 150.115 247.101,149.723 250.693,147.600 251.071 C 144.759 251.576,144.432 252.680,146.614 254.397 C 149.167 256.405,151.200 260.307,151.200 263.199 C 151.200 264.383,151.920 266.004,152.800 266.800 C 154.139 268.012,154.400 269.264,154.400 274.477 C 154.400 277.903,154.760 280.928,155.200 281.200 C 156.570 282.047,156.078 284.702,154.383 285.609 C 152.614 286.556,151.200 286.068,151.200 284.512 C 151.200 281.679,149.215 279.403,146.828 279.501 C 144.524 279.595,144.413 279.457,144.645 276.800 C 144.883 274.086,144.343 271.528,141.941 264.000 C 141.309 262.020,140.794 259.256,140.796 257.857 C 140.802 254.080,138.211 251.693,137.559 254.875 C 136.763 258.760,130.940 268.938,129.117 269.631 C 128.101 270.018,127.228 271.259,126.933 272.737 C 126.082 276.989,122.400 275.687,122.400 271.135 C 122.400 270.291,122.077 269.600,121.683 269.600 C 120.772 269.600,116.000 274.998,116.000 276.028 C 116.000 276.453,115.505 276.800,114.900 276.800 C 113.772 276.800,112.800 280.117,112.800 283.967 C 112.800 285.158,112.559 286.374,112.265 286.668 C 111.580 287.354,108.800 284.866,108.800 283.568 C 108.800 282.392,105.351 280.000,103.656 280.000 C 102.996 280.000,102.073 279.284,101.604 278.408 C 100.423 276.200,94.011 279.655,94.916 282.013 C 95.140 282.597,94.920 283.828,94.427 284.749 C 93.716 286.077,93.775 286.517,94.710 286.876 C 97.862 288.086,98.468 295.577,95.493 296.569 C 93.485 297.238,93.452 297.337,94.788 298.674 C 96.793 300.679,95.719 301.209,91.945 300.078 C 90.148 299.540,87.684 299.318,86.469 299.585 C 84.497 300.018,83.689 299.433,78.955 294.144 L 73.652 288.219 67.826 287.784 C 64.622 287.545,61.658 287.676,61.240 288.075 C 60.822 288.474,59.467 288.800,58.229 288.800 C 56.991 288.800,55.353 289.134,54.589 289.542 C 53.825 289.949,52.570 290.478,51.800 290.716 C 48.327 291.791,50.361 293.600,55.043 293.600 C 58.832 293.600,60.386 294.043,63.485 296.009 C 69.586 299.878,67.032 300.824,56.168 298.719 C 54.241 298.346,53.117 298.589,51.968 299.629 C 49.829 301.564,49.979 302.044,53.000 302.936 C 54.933 303.507,55.557 304.122,55.430 305.333 C 55.325 306.350,55.991 307.353,57.203 308.002 C 58.271 308.573,58.956 309.347,58.725 309.721 C 58.117 310.704,53.877 310.554,51.789 309.475 C 47.971 307.501,47.174 307.200,45.771 307.200 C 44.973 307.200,43.930 306.810,43.452 306.332 C 42.975 305.855,41.733 305.612,40.692 305.792 C 38.908 306.100,38.891 306.154,40.400 306.732 C 47.333 309.389,52.949 312.044,55.943 314.078 C 57.499 315.135,59.232 316.000,59.794 316.000 C 64.125 316.000,80.000 327.024,80.000 330.031 C 80.000 332.439,75.364 330.184,68.972 324.668 C 67.527 323.421,65.802 322.400,65.140 322.400 C 64.477 322.400,62.960 321.720,61.768 320.889 C 60.575 320.058,56.947 318.968,53.703 318.466 C 45.984 317.271,43.845 316.227,46.442 314.921 C 49.029 313.620,49.353 312.000,47.027 312.000 C 45.978 312.000,44.769 311.649,44.341 311.221 C 43.462 310.342,35.461 309.872,34.679 310.654 C 34.148 311.185,34.297 311.246,39.800 312.741 C 43.334 313.701,43.896 314.426,42.199 315.835 C 40.562 317.194,22.336 317.313,20.234 315.978 C 18.652 314.974,18.271 315.042,16.582 316.629 C 15.545 317.603,13.820 318.411,12.748 318.425 C 11.677 318.439,9.360 319.337,7.600 320.421 C 5.840 321.505,3.410 322.394,2.200 322.396 L 0.000 322.400 0.000 361.200 L 0.000 400.000 152.300 400.000 L 304.600 400.000 305.040 397.800 C 305.282 396.590,306.407 394.234,307.540 392.564 C 308.753 390.777,309.600 388.412,309.600 386.812 C 309.600 385.317,309.960 383.872,310.400 383.600 C 311.789 382.741,311.268 378.975,309.499 377.092 C 307.245 374.694,307.971 372.457,310.612 373.660 C 314.903 375.615,319.196 387.085,319.199 396.600 L 319.200 400.000 337.502 400.000 C 352.795 400.000,355.968 399.803,356.800 398.800 C 358.084 397.253,360.000 397.253,360.000 398.800 C 360.000 399.835,362.757 400.000,380.013 400.000 L 400.026 400.000 399.689 330.600 C 399.494 290.337,399.002 258.009,398.518 253.600 C 397.737 246.486,397.277 241.911,395.162 220.200 C 394.701 215.470,394.146 208.000,393.929 203.600 C 393.711 199.200,393.205 194.880,392.803 194.000 C 392.402 193.120,391.880 189.160,391.643 185.200 C 391.406 181.240,390.843 174.220,390.393 169.600 C 387.412 139.058,386.494 128.774,385.972 120.073 C 385.724 115.933,385.224 111.973,384.862 111.273 C 384.500 110.573,384.271 107.480,384.354 104.400 C 384.437 101.320,384.192 97.360,383.810 95.600 C 383.428 93.840,382.990 89.340,382.837 85.600 C 382.684 81.860,382.145 74.300,381.639 68.800 C 381.133 63.300,380.369 55.020,379.941 50.400 C 378.467 34.458,377.614 23.570,377.122 14.400 C 376.851 9.340,376.307 4.858,375.914 4.440 C 375.522 4.022,375.200 2.852,375.200 1.840 L 375.200 0.000 187.600 0.000 L 0.000 0.000 0.000 29.600 M394.000 0.800 C 394.272 1.240,395.172 1.600,396.000 1.600 C 396.828 1.600,397.728 1.960,398.000 2.400 C 398.836 3.753,400.000 3.287,400.000 1.600 C 400.000 0.263,399.467 0.000,396.753 0.000 C 394.792 0.000,393.701 0.317,394.000 0.800 M27.631 32.050 C 27.920 32.518,27.546 33.575,26.800 34.400 C 26.054 35.225,25.656 36.244,25.917 36.666 C 26.570 37.723,24.502 38.405,23.159 37.575 C 22.246 37.010,22.271 36.657,23.310 35.449 C 23.996 34.652,24.780 33.370,25.053 32.600 C 25.611 31.029,26.838 30.767,27.631 32.050 M9.904 54.762 C 9.274 56.403,10.214 57.600,12.133 57.600 C 13.298 57.600,13.631 57.235,13.286 56.335 C 13.019 55.639,12.800 54.739,12.800 54.335 C 12.800 53.141,10.389 53.497,9.904 54.762 M233.176 55.186 C 234.729 56.059,236.000 56.590,236.000 56.366 C 236.000 56.142,237.080 56.517,238.400 57.200 C 239.720 57.883,240.800 58.271,240.800 58.064 C 240.800 57.856,242.750 58.357,245.133 59.177 C 249.878 60.810,251.121 60.522,249.078 58.265 C 247.340 56.344,248.561 56.358,254.433 58.324 C 264.014 61.531,275.082 68.023,280.317 73.505 C 282.208 75.485,282.916 75.780,284.168 75.110 C 286.177 74.035,290.011 76.894,294.456 82.781 C 297.574 86.911,299.500 88.404,300.729 87.644 C 303.446 85.965,304.732 102.267,302.372 108.474 L 301.546 110.647 299.329 108.524 C 298.110 107.356,296.311 106.400,295.331 106.400 C 294.333 106.400,293.360 105.785,293.117 105.000 C 291.946 101.212,289.600 99.407,289.600 102.296 C 289.600 104.440,287.952 108.000,286.960 108.000 C 285.463 108.000,284.051 105.183,284.025 102.147 C 283.998 98.797,282.834 96.000,281.469 96.000 C 280.885 96.000,280.765 97.294,281.110 99.891 C 281.713 104.437,280.893 105.512,276.977 105.307 C 274.230 105.163,270.486 101.647,270.429 99.157 C 270.298 93.489,254.935 76.798,252.287 79.446 C 251.490 80.243,253.626 82.400,255.212 82.400 C 256.993 82.400,257.836 84.465,256.825 86.353 C 256.402 87.143,256.229 87.962,256.440 88.174 C 256.983 88.716,259.200 97.408,259.200 98.992 C 259.200 100.853,256.861 97.733,256.825 95.824 C 256.811 95.068,256.080 93.178,255.200 91.624 C 254.320 90.071,252.847 87.450,251.926 85.800 C 251.006 84.150,249.135 81.630,247.769 80.200 C 246.404 78.770,245.717 77.600,246.243 77.600 C 246.769 77.600,247.200 76.880,247.200 76.000 C 247.200 75.120,246.840 74.400,246.400 74.400 C 245.960 74.400,245.600 74.964,245.600 75.654 C 245.600 76.862,244.778 76.822,241.081 75.436 C 238.899 74.617,239.546 76.836,242.891 81.642 C 247.172 87.793,248.800 90.912,248.800 92.965 C 248.800 94.502,247.887 93.629,236.922 81.608 C 234.719 79.193,232.677 77.456,232.385 77.749 C 231.848 78.285,233.438 83.806,234.501 85.097 C 236.676 87.740,233.832 87.636,230.795 84.963 C 225.235 80.069,210.273 74.302,203.458 74.427 C 200.913 74.473,205.429 77.600,208.041 77.600 C 209.287 77.600,210.528 77.960,210.800 78.400 C 211.072 78.840,212.152 79.200,213.200 79.200 C 215.855 79.200,216.349 80.451,214.447 82.353 C 213.423 83.377,213.030 84.480,213.368 85.382 C 213.839 86.639,213.742 86.672,212.513 85.672 C 211.751 85.051,211.302 84.088,211.516 83.530 C 212.242 81.638,209.817 80.716,204.753 80.960 C 198.281 81.271,196.771 83.014,200.400 85.980 C 203.316 88.364,202.239 88.550,197.837 86.423 C 192.916 84.046,188.000 83.422,188.000 85.175 C 188.000 86.334,187.361 86.510,184.000 86.277 C 179.384 85.957,178.756 87.066,182.600 88.746 C 185.224 89.894,193.600 95.191,193.600 95.703 C 193.600 96.471,187.010 100.000,185.576 100.000 C 183.562 100.000,179.860 101.841,178.444 103.547 C 177.865 104.245,176.171 104.800,174.623 104.800 C 172.564 104.800,171.259 105.424,169.600 107.200 C 168.064 108.844,166.596 109.600,164.936 109.600 C 163.604 109.600,161.957 110.157,161.276 110.838 C 160.595 111.519,157.959 112.463,155.419 112.935 C 152.878 113.407,149.490 114.326,147.888 114.978 C 146.234 115.651,144.221 115.924,143.229 115.609 C 142.268 115.304,140.419 115.495,139.121 116.033 C 132.855 118.628,132.154 111.221,137.868 102.804 C 142.829 95.496,145.980 92.875,155.028 88.531 C 162.601 84.895,162.806 84.749,161.485 83.912 C 159.729 82.800,157.422 83.095,155.652 84.660 C 154.743 85.463,152.380 86.618,150.400 87.226 C 148.420 87.835,146.536 88.708,146.212 89.166 C 145.818 89.725,145.620 89.699,145.612 89.086 C 145.560 85.164,173.521 65.600,179.179 65.600 C 180.522 65.600,182.247 65.275,183.011 64.878 C 186.875 62.869,199.224 60.541,203.270 61.058 C 205.211 61.307,210.400 61.709,214.800 61.953 C 223.485 62.435,232.564 63.647,236.457 64.844 C 239.902 65.904,241.625 65.795,241.146 64.548 C 240.726 63.454,234.165 60.789,231.910 60.796 C 231.201 60.798,229.304 59.754,227.696 58.476 C 225.040 56.366,224.001 56.099,216.386 55.580 C 204.394 54.763,206.033 53.600,219.176 53.600 C 228.836 53.600,230.734 53.815,233.176 55.186 M254.020 61.568 C 253.530 62.361,261.223 67.179,263.000 67.192 C 265.766 67.213,262.690 63.908,258.196 62.031 C 254.728 60.581,254.636 60.571,254.020 61.568 M254.051 70.317 C 253.386 71.394,256.748 74.400,258.618 74.400 C 260.711 74.400,260.055 73.023,257.055 71.124 C 255.554 70.174,254.341 69.848,254.051 70.317 M261.600 71.153 C 261.600 72.268,263.071 72.974,264.085 72.347 C 264.703 71.966,264.642 71.592,263.885 71.112 C 262.457 70.207,261.600 70.223,261.600 71.153 M196.938 74.127 C 197.094 74.937,197.757 75.600,198.411 75.600 C 200.126 75.600,199.878 73.275,198.127 72.938 C 197.058 72.732,196.732 73.058,196.938 74.127 M280.000 77.125 C 280.000 77.856,279.440 78.104,278.400 77.832 C 276.114 77.234,276.450 78.386,279.499 81.600 C 284.969 87.367,286.145 88.218,286.688 86.803 C 287.019 85.940,286.067 84.483,283.791 82.369 C 281.366 80.117,280.799 79.217,281.800 79.210 C 283.545 79.198,283.647 77.143,281.935 76.486 C 280.158 75.804,280.000 75.856,280.000 77.125 M164.000 78.000 C 164.000 78.824,164.524 79.216,165.400 79.048 C 167.086 78.723,166.980 77.303,165.242 76.941 C 164.517 76.790,164.000 77.231,164.000 78.000 M263.225 77.344 C 263.270 78.502,265.344 80.800,266.344 80.800 C 268.155 80.800,266.905 77.215,265.000 76.944 C 264.010 76.804,263.211 76.984,263.225 77.344 M265.000 92.870 C 266.537 95.571,266.866 97.982,265.589 97.193 C 265.142 96.917,264.055 95.276,263.172 93.546 C 261.206 89.691,262.846 89.085,265.000 92.870 M0.000 96.388 C 0.000 97.459,2.922 98.183,10.230 98.923 C 13.796 99.284,14.390 99.571,14.016 100.750 C 13.664 101.859,14.652 102.607,18.786 104.364 C 24.739 106.894,24.966 107.278,21.447 108.856 C 16.541 111.055,18.260 113.201,25.902 114.418 C 28.156 114.777,32.520 115.514,35.600 116.055 C 38.680 116.596,42.640 117.161,44.400 117.311 C 46.160 117.460,49.940 117.939,52.800 118.375 C 72.748 121.412,79.832 122.408,85.000 122.902 C 87.530 123.144,89.600 123.710,89.600 124.160 C 89.600 125.315,78.454 124.664,44.800 121.546 C 40.180 121.118,30.755 120.564,23.856 120.315 L 11.313 119.861 10.036 122.331 C 9.177 123.992,8.163 124.800,6.939 124.800 C 4.500 124.800,3.200 126.246,3.200 128.960 C 3.200 130.667,2.819 131.200,1.600 131.200 C 0.262 131.200,0.000 131.733,0.000 134.454 C 0.000 137.296,0.194 137.646,1.533 137.221 C 2.376 136.954,3.297 137.110,3.580 137.567 C 3.885 138.061,3.262 138.400,2.047 138.400 C 0.186 138.400,0.000 138.696,0.000 141.654 C 0.000 144.689,0.121 144.864,1.800 144.254 C 5.332 142.971,57.673 144.057,59.488 145.451 C 60.762 146.429,76.614 146.548,77.210 145.583 C 77.499 145.117,76.240 144.800,74.094 144.800 C 72.114 144.800,70.272 144.440,70.000 144.000 C 69.728 143.560,68.603 143.200,67.500 143.200 C 60.780 143.200,62.004 137.421,70.521 128.930 L 73.200 126.260 91.600 126.684 C 101.720 126.917,108.728 126.838,107.173 126.508 C 105.618 126.178,103.949 125.663,103.465 125.364 C 102.981 125.065,100.113 124.434,97.092 123.963 C 87.424 122.456,81.287 121.538,77.874 121.089 C 73.320 120.489,72.992 118.664,76.503 113.447 C 80.015 108.229,79.786 106.967,75.190 106.204 C 73.215 105.877,69.440 105.234,66.800 104.776 C 60.095 103.613,52.182 102.454,48.400 102.081 C 46.640 101.908,42.500 101.338,39.200 100.814 C 30.914 99.501,22.819 98.422,17.600 97.937 C 15.180 97.712,12.480 97.212,11.600 96.824 C 8.707 95.551,-0.000 95.224,0.000 96.388 M99.386 125.734 C 98.696 126.424,97.976 126.439,96.626 125.788 C 94.911 124.962,94.968 124.905,97.560 124.854 C 99.664 124.813,100.098 125.022,99.386 125.734 M320.000 135.335 C 337.537 136.979,348.689 138.240,358.356 139.671 C 362.019 140.214,363.991 141.494,364.012 143.343 C 364.018 143.924,364.571 145.973,365.241 147.896 C 367.110 153.263,365.620 155.047,359.007 155.362 C 354.290 155.586,353.995 155.716,353.913 157.600 C 353.865 158.700,353.578 160.504,353.274 161.608 C 352.680 163.771,354.024 201.410,355.188 215.200 C 356.355 229.024,357.861 248.769,359.581 272.800 C 359.817 276.100,360.211 281.500,360.457 284.800 C 361.475 298.473,362.309 313.004,362.619 322.474 C 362.801 328.014,363.240 333.017,363.595 333.592 C 363.950 334.167,364.329 338.453,364.436 343.118 C 364.544 347.783,365.051 356.280,365.564 362.000 C 366.076 367.720,366.691 376.401,366.931 381.291 L 367.366 390.182 365.134 390.608 C 361.840 391.238,361.246 390.770,358.992 385.761 C 356.234 379.635,355.683 377.654,355.911 374.702 C 356.083 372.494,355.317 371.483,349.330 366.003 C 338.881 356.440,336.674 352.196,337.395 343.050 C 337.579 340.712,337.308 335.920,336.792 332.400 C 336.277 328.880,335.891 323.120,335.934 319.600 C 335.978 316.080,335.673 311.040,335.257 308.400 C 334.840 305.760,334.322 298.920,334.104 293.200 C 333.887 287.480,333.318 277.400,332.839 270.800 C 331.376 250.631,330.489 237.011,329.730 223.088 C 329.330 215.767,328.802 209.450,328.555 209.051 C 328.308 208.651,328.025 203.738,327.927 198.132 C 327.829 192.526,327.445 187.751,327.074 187.522 C 326.703 187.293,326.400 185.713,326.400 184.011 C 326.400 180.145,323.992 178.020,318.712 177.229 C 311.655 176.170,310.737 173.971,309.516 155.200 C 308.251 135.759,308.620 132.635,312.000 134.157 C 312.660 134.455,316.260 134.985,320.000 135.335 M83.200 146.393 C 81.294 146.892,81.324 146.936,83.835 147.325 C 85.285 147.549,86.633 147.471,86.831 147.150 C 87.397 146.234,85.397 145.817,83.200 146.393 M243.600 174.400 C 243.328 174.840,241.417 175.243,239.353 175.295 L 235.600 175.390 240.000 176.225 L 244.400 177.059 241.600 177.709 C 240.060 178.067,237.807 178.159,236.593 177.915 C 235.379 177.670,232.015 178.065,229.117 178.791 C 226.219 179.518,223.351 179.922,222.744 179.689 C 222.136 179.456,220.416 179.776,218.921 180.401 C 217.426 181.026,216.033 181.366,215.824 181.158 C 215.616 180.949,214.054 181.360,212.354 182.071 L 209.262 183.363 211.231 184.453 C 212.364 185.080,215.647 185.555,218.962 185.572 C 222.132 185.587,225.732 186.011,226.962 186.512 C 232.584 188.805,235.133 189.923,239.663 192.082 C 246.629 195.402,249.600 194.955,249.600 190.584 C 249.600 187.911,252.930 188.416,253.657 191.200 C 254.118 192.965,254.252 193.029,254.796 191.746 C 255.611 189.825,253.977 186.814,250.021 182.947 C 246.956 179.951,246.899 179.801,248.421 178.747 C 252.298 176.064,252.336 175.830,249.087 174.699 C 245.371 173.405,244.252 173.344,243.600 174.400 M141.000 186.123 C 138.930 189.025,138.707 190.839,140.342 191.467 C 142.122 192.150,143.328 190.009,143.052 186.656 L 142.800 183.600 141.000 186.123 M294.300 188.500 C 297.044 189.049,297.482 190.403,295.543 192.343 C 293.066 194.820,288.874 192.424,290.099 189.232 C 290.632 187.841,290.831 187.806,294.300 188.500 M143.566 203.000 C 144.162 206.291,148.000 211.115,148.000 208.573 C 148.000 206.602,144.783 200.000,143.823 200.000 C 143.334 200.000,143.234 201.169,143.566 203.000 M263.337 258.924 C 265.398 260.790,265.186 261.349,262.016 262.395 C 257.681 263.825,256.226 262.174,259.200 259.200 C 261.140 257.260,261.473 257.238,263.337 258.924 M297.070 266.624 C 299.002 268.170,299.345 269.032,299.376 272.420 C 299.397 274.609,299.788 276.872,300.245 277.448 C 300.702 278.025,301.041 280.825,300.997 283.671 C 300.918 288.881,301.713 291.427,304.189 293.903 C 304.928 294.642,305.337 295.754,305.099 296.375 C 304.861 296.995,305.026 298.145,305.465 298.931 C 305.993 299.874,305.996 300.860,305.474 301.836 C 304.948 302.817,304.961 304.110,305.510 305.687 C 306.080 307.321,306.080 308.735,305.510 310.230 C 304.275 313.468,305.309 318.937,307.252 319.445 C 308.631 319.806,308.713 320.115,307.902 321.896 C 307.147 323.553,307.219 324.309,308.287 325.939 C 311.290 330.523,309.232 331.730,304.830 327.967 C 302.975 326.382,301.189 325.600,299.419 325.600 C 297.967 325.600,295.973 325.184,294.989 324.675 C 291.147 322.689,290.368 322.400,288.858 322.400 C 287.998 322.400,287.072 322.040,286.800 321.600 C 286.528 321.160,285.448 320.800,284.400 320.800 C 283.352 320.800,282.266 320.430,281.987 319.979 C 281.708 319.527,281.056 319.228,280.540 319.315 C 276.261 320.030,267.974 316.408,268.008 313.836 C 268.013 313.486,269.651 311.040,271.649 308.400 C 273.647 305.760,275.490 302.603,275.744 301.383 C 275.998 300.164,276.520 298.973,276.903 298.736 C 277.286 298.499,277.600 297.084,277.600 295.590 C 277.600 294.097,278.011 291.868,278.512 290.638 C 280.842 284.926,282.080 282.447,284.932 277.786 C 286.619 275.028,288.000 272.486,288.000 272.137 C 288.000 271.432,293.768 264.837,294.400 264.819 C 294.620 264.813,295.821 265.625,297.070 266.624 M244.703 267.698 C 247.395 267.987,249.680 267.799,250.807 267.196 C 255.299 264.792,272.707 269.226,271.467 272.458 C 270.987 273.708,268.352 274.016,267.664 272.904 C 266.961 271.767,258.643 272.604,256.465 274.031 C 255.359 274.756,252.993 275.424,251.207 275.516 C 248.610 275.649,247.330 276.314,244.807 278.841 C 240.909 282.745,240.903 282.881,244.600 283.487 C 249.476 284.285,259.006 290.114,257.651 291.469 C 257.183 291.937,256.800 293.439,256.800 294.807 C 256.800 298.634,255.241 300.280,252.576 299.267 C 250.771 298.581,250.400 297.955,250.400 295.595 C 250.400 291.946,248.652 291.217,245.495 293.551 C 242.653 295.653,240.624 294.656,240.839 291.264 C 241.164 286.131,241.213 286.178,235.922 286.561 L 231.044 286.913 229.021 282.642 C 227.909 280.292,226.684 278.175,226.299 277.938 C 225.318 277.331,225.427 272.218,226.463 270.282 C 227.822 267.744,231.855 266.337,236.400 266.815 C 238.600 267.047,242.336 267.445,244.703 267.698 M115.495 290.917 C 117.215 294.524,116.148 296.148,113.680 293.680 C 111.819 291.819,111.397 288.000,113.052 288.000 C 113.630 288.000,114.730 289.313,115.495 290.917 M207.044 299.459 C 207.618 300.637,208.564 301.600,209.146 301.600 C 209.728 301.600,210.652 302.140,211.200 302.800 C 212.321 304.151,216.443 304.425,217.200 303.200 C 218.298 301.423,222.968 302.326,224.442 304.600 C 227.259 308.946,232.669 311.992,233.444 309.668 C 233.668 308.995,234.347 309.223,235.586 310.387 C 236.951 311.669,238.445 312.098,241.635 312.123 C 246.582 312.161,249.189 313.368,247.839 314.994 C 247.227 315.731,247.207 316.595,247.772 317.827 C 248.220 318.802,249.084 320.680,249.692 322.000 C 250.300 323.320,251.023 324.580,251.299 324.800 C 251.574 325.020,252.835 326.826,254.100 328.813 C 255.365 330.800,257.351 333.680,258.513 335.213 C 267.157 346.611,270.618 359.090,265.160 359.175 C 264.258 359.189,263.088 359.632,262.560 360.160 C 261.866 360.854,261.600 360.866,261.600 360.205 C 261.600 359.702,262.359 358.759,263.287 358.109 C 265.320 356.685,264.639 355.200,261.953 355.200 C 260.827 355.200,260.000 354.733,260.000 354.098 C 260.000 353.492,259.511 352.590,258.914 352.094 C 258.316 351.598,256.486 348.404,254.846 344.996 C 253.206 341.588,251.535 338.175,251.132 337.411 C 250.730 336.647,250.400 335.472,250.400 334.800 C 250.400 334.128,250.040 332.863,249.600 331.989 C 249.160 331.115,248.440 329.685,248.000 328.811 C 247.560 327.937,247.200 326.518,247.200 325.658 C 247.200 324.798,246.840 323.872,246.400 323.600 C 245.960 323.328,245.589 322.137,245.575 320.953 C 245.545 318.474,244.343 316.657,241.858 315.334 C 238.615 313.606,236.655 315.806,238.095 319.558 C 238.539 320.716,238.699 320.702,239.669 319.424 C 240.646 318.136,240.752 318.250,240.775 320.628 C 240.789 322.074,241.325 324.057,241.966 325.036 C 243.221 326.952,242.800 328.222,240.646 329.015 C 239.902 329.290,239.297 330.163,239.301 330.957 C 239.305 331.751,238.923 336.180,238.451 340.800 C 237.979 345.420,237.248 352.980,236.827 357.600 C 235.679 370.179,235.308 371.586,232.166 375.256 L 229.296 378.609 227.452 376.305 C 225.380 373.715,225.147 371.366,226.572 367.425 C 227.335 365.314,227.335 364.401,226.572 363.179 C 224.556 359.950,226.287 344.182,229.600 335.600 C 229.940 334.720,230.660 332.380,231.200 330.400 C 232.163 326.870,233.008 324.558,234.621 321.040 C 236.238 317.511,231.976 312.000,227.629 312.000 C 226.941 312.000,225.753 311.679,224.989 311.288 C 224.225 310.896,221.800 309.742,219.600 308.723 C 217.400 307.705,214.644 306.225,213.477 305.436 C 212.309 304.646,210.779 304.000,210.077 304.000 C 209.374 304.000,208.800 303.640,208.800 303.200 C 208.800 302.760,208.414 302.400,207.943 302.400 C 206.703 302.400,205.102 300.612,204.422 298.468 C 203.593 295.857,205.671 296.643,207.044 299.459 M16.484 301.464 C 15.910 302.393,18.454 303.040,26.610 304.043 C 29.794 304.435,33.799 304.991,35.509 305.278 C 37.717 305.649,38.457 305.540,38.062 304.900 C 37.756 304.405,36.519 304.000,35.313 304.000 C 34.107 304.000,32.778 303.677,32.360 303.282 C 31.942 302.887,29.980 302.333,28.000 302.051 C 19.371 300.821,16.957 300.698,16.484 301.464 M98.261 313.983 C 103.053 320.344,101.437 321.558,94.674 316.676 C 88.423 312.163,87.857 310.384,92.686 310.425 C 95.184 310.446,95.980 310.954,98.261 313.983 M65.890 312.820 C 66.887 313.745,65.754 315.200,64.038 315.200 C 62.675 315.200,61.600 313.736,61.600 311.881 C 61.600 311.044,64.710 311.725,65.890 312.820 M44.743 323.316 C 48.362 324.476,57.920 329.048,61.647 331.402 C 63.212 332.391,66.272 334.237,68.447 335.503 C 79.791 342.113,82.418 344.527,79.185 345.372 C 78.001 345.682,77.627 346.356,77.785 347.897 C 78.079 350.777,73.887 350.657,70.354 347.684 C 68.992 346.538,67.275 345.592,66.539 345.582 C 65.802 345.572,64.300 344.860,63.200 344.000 C 62.100 343.140,60.812 342.428,60.338 342.418 C 59.864 342.408,57.164 341.444,54.338 340.275 C 51.512 339.107,47.760 337.881,46.000 337.551 C 41.525 336.712,39.301 336.157,38.546 335.690 C 38.189 335.470,35.640 335.111,32.881 334.892 C 27.834 334.492,23.999 332.803,24.001 330.982 C 24.002 329.666,32.390 329.818,35.600 331.192 C 36.920 331.757,39.440 332.510,41.200 332.867 C 48.010 334.244,49.252 334.541,50.800 335.161 C 51.680 335.513,53.407 336.206,54.638 336.700 C 55.868 337.195,57.508 337.600,58.281 337.600 C 59.053 337.600,61.575 338.541,63.884 339.692 C 68.058 341.772,69.380 341.812,68.579 339.835 C 68.203 338.907,62.078 335.537,55.600 332.694 C 54.280 332.115,50.913 330.282,48.118 328.621 C 45.323 326.959,42.383 325.600,41.584 325.600 C 39.276 325.600,37.600 324.723,37.600 323.514 C 37.600 322.145,40.811 322.055,44.743 323.316 M14.744 329.509 C 14.985 329.899,14.659 330.653,14.019 331.184 C 12.461 332.477,6.400 331.479,6.400 329.930 C 6.400 328.647,13.975 328.266,14.744 329.509 M89.600 336.486 C 89.600 337.765,87.539 337.996,86.800 336.800 C 86.528 336.360,86.518 335.656,86.778 335.235 C 87.436 334.170,89.600 335.129,89.600 336.486 M14.960 336.929 C 16.808 337.400,18.913 338.441,19.638 339.242 C 21.242 341.014,20.491 342.711,18.551 341.700 C 17.808 341.312,13.960 340.538,10.000 339.979 C 2.369 338.902,1.127 338.387,1.820 336.582 C 2.315 335.291,9.249 335.474,14.960 336.929 M25.708 341.812 C 25.268 342.252,24.263 342.365,23.476 342.063 C 22.319 341.619,22.256 341.383,23.150 340.831 C 24.631 339.916,26.780 340.740,25.708 341.812 M37.447 344.321 C 39.841 345.559,40.645 347.088,39.503 348.231 C 39.015 348.718,31.810 345.423,29.762 343.776 C 26.686 341.302,32.392 341.707,37.447 344.321 M56.568 346.901 C 56.958 348.074,54.950 348.835,53.625 348.015 C 53.058 347.665,52.855 346.959,53.172 346.445 C 53.864 345.326,56.145 345.633,56.568 346.901 M85.092 347.258 C 87.360 349.042,88.024 352.800,86.071 352.800 C 84.955 352.800,80.800 348.442,80.800 347.272 C 80.800 345.213,82.486 345.208,85.092 347.258 M62.400 351.535 C 62.400 351.719,62.619 352.439,62.886 353.135 C 63.252 354.089,62.859 354.400,61.286 354.400 C 59.733 354.400,59.200 353.991,59.200 352.800 C 59.200 351.733,59.733 351.200,60.800 351.200 C 61.680 351.200,62.400 351.351,62.400 351.535 M83.533 354.326 C 85.022 355.971,85.021 356.000,83.463 356.000 C 81.737 356.000,78.067 352.599,78.898 351.769 C 79.572 351.095,81.644 352.238,83.533 354.326 M28.486 369.400 C 29.807 370.721,29.808 370.815,28.504 371.066 C 26.884 371.378,24.621 369.737,25.256 368.709 C 25.920 367.634,26.937 367.852,28.486 369.400 M45.600 384.000 C 45.600 384.440,45.060 384.800,44.400 384.800 C 43.740 384.800,43.200 384.440,43.200 384.000 C 43.200 383.560,43.740 383.200,44.400 383.200 C 45.060 383.200,45.600 383.560,45.600 384.000 " stroke="none" fill="#5b7287" fill-rule="evenodd"></path><path id="path3" d="M135.530 5.714 C 135.133 6.355,132.466 6.486,126.582 6.153 C 118.203 5.679,118.197 5.679,115.968 7.909 C 114.259 9.618,113.416 9.961,112.369 9.375 C 111.464 8.868,109.992 8.943,108.016 9.595 C 105.699 10.359,104.633 10.367,103.253 9.628 C 101.111 8.482,99.200 9.063,99.200 10.860 C 99.200 11.800,98.803 12.004,97.800 11.583 C 94.635 10.253,92.692 10.250,91.229 11.573 C 90.323 12.394,89.095 12.747,88.170 12.454 C 87.249 12.162,86.218 12.455,85.615 13.182 C 85.059 13.852,83.952 14.400,83.156 14.400 C 82.359 14.400,81.485 15.102,81.213 15.959 C 80.535 18.096,78.130 18.695,74.907 17.530 C 71.103 16.154,62.861 17.977,61.163 20.569 C 60.475 21.619,59.159 22.400,58.079 22.400 C 55.798 22.400,50.718 24.438,49.966 25.655 C 49.667 26.138,47.175 27.574,44.427 28.846 C 41.678 30.118,38.974 31.708,38.417 32.379 C 37.860 33.051,37.039 33.600,36.594 33.600 C 36.148 33.600,34.949 34.500,33.930 35.600 C 32.910 36.700,31.306 37.600,30.363 37.600 C 29.323 37.600,28.486 38.228,28.232 39.200 C 27.780 40.928,26.792 41.282,26.000 40.000 C 25.048 38.460,22.400 39.111,22.400 40.886 C 22.400 42.177,22.073 42.436,21.000 41.995 C 17.254 40.453,16.763 40.627,12.883 44.868 C 9.478 48.592,8.266 50.460,5.659 56.000 C 5.349 56.660,3.956 57.740,2.565 58.400 L 0.035 59.600 0.017 77.307 C -0.002 97.435,-0.570 95.966,7.240 95.989 C 9.242 95.995,11.222 96.330,11.640 96.733 C 12.058 97.136,14.560 97.661,17.200 97.901 C 22.678 98.399,30.493 99.434,39.200 100.814 C 42.500 101.338,46.640 101.908,48.400 102.081 C 52.182 102.454,60.095 103.613,66.800 104.776 C 69.440 105.234,73.215 105.877,75.190 106.204 C 79.786 106.967,80.015 108.229,76.503 113.447 C 72.994 118.662,73.321 120.486,77.874 121.096 C 79.703 121.340,83.360 121.874,86.000 122.282 C 94.481 123.592,99.787 124.044,97.600 123.268 C 96.500 122.878,94.502 122.524,93.160 122.480 C 88.091 122.314,87.545 119.366,91.600 114.054 C 94.772 109.899,94.984 109.062,93.000 108.539 C 88.557 107.370,83.494 106.351,76.400 105.198 C 72.000 104.483,67.098 103.561,65.507 103.149 C 63.916 102.737,61.288 102.400,59.667 102.400 C 56.305 102.400,52.000 100.456,52.000 98.937 C 52.000 97.147,56.883 91.200,58.352 91.200 C 59.130 91.200,60.647 90.390,61.724 89.400 C 63.465 87.800,81.209 78.584,86.400 76.584 C 87.500 76.160,89.025 75.495,89.789 75.107 C 90.553 74.718,91.882 74.400,92.742 74.400 C 93.602 74.400,94.506 74.075,94.752 73.678 C 95.208 72.940,102.536 70.657,110.400 68.803 C 117.167 67.208,139.146 67.370,145.600 69.063 C 148.460 69.813,151.618 70.609,152.618 70.833 C 154.873 71.337,154.186 72.922,149.748 77.449 C 144.236 83.072,133.612 101.550,133.588 105.554 C 133.578 107.227,133.418 107.381,132.712 106.400 C 131.977 105.377,131.913 105.401,132.284 106.559 C 132.523 107.306,132.193 108.971,131.551 110.258 C 130.909 111.545,130.280 115.205,130.153 118.392 C 129.970 122.980,129.607 124.416,128.408 125.293 C 127.576 125.902,127.267 126.400,127.723 126.400 C 129.019 126.400,131.017 123.804,131.418 121.600 C 131.700 120.052,131.807 120.242,131.891 122.440 C 131.951 124.002,131.568 125.712,131.040 126.240 C 129.863 127.417,118.400 127.562,118.400 126.400 C 118.400 125.960,116.621 125.600,114.447 125.600 C 112.273 125.600,110.272 125.240,110.000 124.800 C 109.728 124.360,107.277 124.031,104.553 124.069 C 99.293 124.142,99.854 124.641,107.200 126.427 C 108.845 126.827,102.409 126.933,91.600 126.684 L 73.200 126.260 70.521 128.930 C 62.004 137.421,60.780 143.200,67.500 143.200 C 68.603 143.200,69.728 143.560,70.000 144.000 C 70.272 144.440,72.114 144.800,74.094 144.800 C 76.240 144.800,77.499 145.117,77.210 145.583 C 76.614 146.548,60.762 146.429,59.488 145.451 C 57.647 144.037,7.269 142.727,3.000 143.982 L 0.000 144.864 0.000 184.479 C 0.000 210.686,0.271 223.927,0.800 223.600 C 1.240 223.328,1.600 222.222,1.600 221.142 C 1.600 220.062,1.960 218.463,2.400 217.589 C 2.840 216.715,3.560 215.285,4.000 214.411 C 4.440 213.537,4.800 212.288,4.800 211.635 C 4.800 210.983,5.520 209.167,6.400 207.600 C 7.280 206.033,8.000 204.131,8.000 203.373 C 8.000 202.615,9.080 200.975,10.400 199.730 C 11.720 198.484,12.800 196.639,12.800 195.630 C 12.800 193.033,14.773 188.635,16.734 186.860 C 17.650 186.031,18.400 185.088,18.400 184.765 C 18.400 183.947,26.607 171.343,29.128 168.290 C 30.268 166.910,31.200 165.525,31.200 165.213 C 31.200 164.901,32.640 163.010,34.400 161.010 C 36.160 159.011,37.600 157.109,37.600 156.783 C 37.600 155.847,45.715 150.031,48.800 148.756 C 52.781 147.112,88.263 147.627,105.400 149.577 C 106.641 149.719,105.067 151.174,103.400 151.427 C 101.630 151.695,101.787 151.784,104.200 151.880 C 105.850 151.946,107.200 151.640,107.200 151.200 C 107.200 150.053,109.403 150.210,109.795 151.384 C 110.046 152.137,110.579 152.156,112.061 151.467 L 114.000 150.565 112.000 149.733 L 110.000 148.901 112.200 148.851 C 114.821 148.790,115.202 147.205,112.600 147.189 C 111.610 147.183,109.900 146.996,108.800 146.773 C 107.026 146.413,106.981 146.457,108.400 147.164 C 110.480 148.201,99.674 147.700,94.000 146.498 C 91.800 146.031,88.418 145.368,86.485 145.025 C 81.455 144.131,80.925 142.781,83.483 137.374 C 84.647 134.913,85.600 132.541,85.600 132.104 C 85.600 131.667,86.646 130.564,87.923 129.654 C 90.787 127.616,105.316 127.102,104.562 129.066 C 104.236 129.916,105.717 130.094,111.877 129.945 C 117.466 129.809,118.605 129.923,116.000 130.358 L 112.400 130.960 116.800 131.173 C 119.220 131.290,122.820 131.434,124.800 131.493 L 128.400 131.600 128.400 138.000 C 128.400 141.520,128.073 145.120,127.674 146.000 C 127.274 146.880,127.019 148.140,127.107 148.800 C 127.202 149.516,127.011 149.677,126.633 149.200 C 126.285 148.760,124.200 148.346,122.000 148.279 C 119.800 148.212,118.868 148.335,119.930 148.552 C 121.296 148.830,121.557 149.132,120.823 149.586 C 120.126 150.016,120.673 150.415,122.493 150.802 C 127.403 151.847,129.428 156.939,126.296 160.360 C 125.913 160.778,125.606 161.498,125.612 161.960 C 125.619 162.422,125.973 162.260,126.400 161.600 C 127.002 160.668,127.178 160.901,127.188 162.642 C 127.202 165.317,124.018 170.288,122.599 169.806 C 121.984 169.597,121.775 169.924,122.056 170.656 C 122.307 171.311,121.964 173.411,121.294 175.323 C 120.194 178.463,120.073 178.574,120.038 176.467 C 120.017 175.183,119.764 174.369,119.476 174.657 C 118.718 175.415,119.138 191.879,119.955 193.464 C 120.334 194.199,121.104 196.420,121.667 198.400 C 122.669 201.928,124.138 205.137,129.908 216.400 C 132.999 222.433,133.411 224.394,131.725 225.041 C 130.434 225.537,129.443 235.982,129.129 252.400 C 129.011 258.560,128.878 263.780,128.832 264.000 C 128.786 264.220,128.200 263.680,127.530 262.800 C 126.353 261.257,126.324 261.277,126.696 263.365 C 127.115 265.718,125.391 266.884,122.904 265.929 C 121.922 265.552,121.709 265.753,122.077 266.711 C 122.395 267.540,122.147 268.000,121.384 268.000 C 120.730 268.000,119.765 268.520,119.237 269.155 C 118.710 269.790,116.056 271.022,113.339 271.892 C 108.753 273.360,107.254 273.707,100.193 274.926 C 98.759 275.174,97.387 275.697,97.145 276.088 C 96.903 276.480,95.668 276.800,94.400 276.800 C 93.132 276.800,91.872 277.160,91.600 277.600 C 91.328 278.040,90.415 278.400,89.571 278.400 C 88.727 278.400,86.040 279.480,83.600 280.800 C 81.160 282.120,78.457 283.200,77.593 283.200 C 76.730 283.200,74.488 283.555,72.611 283.989 C 57.952 287.379,54.387 288.334,51.409 289.674 C 49.544 290.513,47.723 291.200,47.364 291.200 C 47.005 291.200,45.550 292.056,44.132 293.103 C 41.087 295.350,37.364 296.360,27.600 297.592 C 23.640 298.092,19.500 298.885,18.400 299.356 C 15.039 300.792,10.247 303.265,5.000 306.269 L -0.000 309.132 -0.000 315.766 L 0.000 322.400 2.200 322.396 C 3.410 322.394,5.840 321.505,7.600 320.421 C 9.360 319.337,11.677 318.439,12.748 318.425 C 13.820 318.411,15.545 317.603,16.582 316.629 C 18.271 315.042,18.652 314.974,20.234 315.978 C 22.336 317.313,40.562 317.194,42.199 315.835 C 43.896 314.426,43.334 313.701,39.800 312.741 C 34.297 311.246,34.148 311.185,34.679 310.654 C 35.461 309.872,43.462 310.342,44.341 311.221 C 44.769 311.649,45.978 312.000,47.027 312.000 C 49.353 312.000,49.029 313.620,46.442 314.921 C 43.845 316.227,45.984 317.271,53.703 318.466 C 56.947 318.968,60.575 320.058,61.768 320.889 C 62.960 321.720,64.477 322.400,65.140 322.400 C 65.802 322.400,67.527 323.421,68.972 324.668 C 75.364 330.184,80.000 332.439,80.000 330.031 C 80.000 327.024,64.125 316.000,59.794 316.000 C 59.232 316.000,57.499 315.135,55.943 314.078 C 52.949 312.044,47.333 309.389,40.400 306.732 C 38.891 306.154,38.908 306.100,40.692 305.792 C 41.733 305.612,42.975 305.855,43.452 306.332 C 43.930 306.810,44.973 307.200,45.771 307.200 C 46.569 307.200,47.937 307.560,48.811 308.000 C 49.685 308.440,51.115 309.160,51.989 309.600 C 55.824 311.530,60.893 309.976,57.203 308.002 C 55.991 307.353,55.325 306.350,55.430 305.333 C 55.557 304.122,54.933 303.507,53.000 302.936 C 49.979 302.044,49.829 301.564,51.968 299.629 C 53.117 298.589,54.241 298.346,56.168 298.719 C 67.032 300.824,69.586 299.878,63.485 296.009 C 60.386 294.043,58.832 293.600,55.043 293.600 C 50.361 293.600,48.327 291.791,51.800 290.716 C 52.570 290.478,53.825 289.949,54.589 289.542 C 55.353 289.134,56.991 288.800,58.229 288.800 C 59.467 288.800,60.822 288.474,61.240 288.075 C 61.658 287.676,64.622 287.545,67.826 287.784 L 73.652 288.219 78.955 294.144 C 83.689 299.433,84.497 300.018,86.469 299.585 C 87.684 299.318,90.148 299.540,91.945 300.078 C 95.719 301.209,96.793 300.679,94.788 298.674 C 93.452 297.337,93.485 297.238,95.493 296.569 C 98.468 295.577,97.862 288.086,94.710 286.876 C 93.775 286.517,93.716 286.077,94.427 284.749 C 94.920 283.828,95.140 282.597,94.916 282.013 C 94.011 279.655,100.423 276.200,101.604 278.408 C 102.073 279.284,102.996 280.000,103.656 280.000 C 105.351 280.000,108.800 282.392,108.800 283.568 C 108.800 284.866,111.580 287.354,112.265 286.668 C 112.559 286.374,112.800 285.158,112.800 283.967 C 112.800 280.117,113.772 276.800,114.900 276.800 C 115.505 276.800,116.000 276.453,116.000 276.028 C 116.000 274.998,120.772 269.600,121.683 269.600 C 122.077 269.600,122.400 270.291,122.400 271.135 C 122.400 275.687,126.082 276.989,126.933 272.737 C 127.228 271.259,128.101 270.018,129.117 269.631 C 130.940 268.938,136.763 258.760,137.559 254.875 C 138.211 251.693,140.802 254.080,140.796 257.857 C 140.794 259.256,141.309 262.020,141.941 264.000 C 144.343 271.528,144.883 274.086,144.645 276.800 C 144.413 279.457,144.524 279.595,146.828 279.501 C 149.215 279.403,151.200 281.679,151.200 284.512 C 151.200 286.068,152.614 286.556,154.383 285.609 C 156.078 284.702,156.570 282.047,155.200 281.200 C 154.760 280.928,154.400 277.903,154.400 274.477 C 154.400 269.264,154.139 268.012,152.800 266.800 C 151.920 266.004,151.200 264.383,151.200 263.199 C 151.200 260.307,149.167 256.405,146.614 254.397 C 144.432 252.680,144.759 251.576,147.600 251.071 C 149.723 250.693,150.115 247.101,148.422 243.533 C 146.905 240.336,146.807 240.314,143.381 242.403 C 139.363 244.852,139.200 244.618,139.200 236.418 C 139.200 227.550,140.111 226.324,146.200 226.994 C 149.313 227.336,149.600 227.560,149.600 229.637 C 149.600 230.885,149.960 232.128,150.400 232.400 C 150.840 232.672,151.200 233.729,151.200 234.749 C 151.200 235.769,151.775 237.081,152.477 237.664 C 155.193 239.918,156.282 235.390,157.943 214.949 C 159.140 200.215,159.283 199.727,161.703 202.147 C 163.051 203.496,163.196 204.112,162.480 205.450 C 161.161 207.916,161.413 210.213,163.200 212.000 C 164.080 212.880,164.800 214.428,164.800 215.440 C 164.800 216.452,165.182 217.662,165.649 218.129 C 166.138 218.618,166.512 222.663,166.533 227.689 C 166.571 236.991,167.779 244.506,169.896 248.599 C 170.613 249.986,171.200 251.826,171.200 252.688 C 171.200 257.030,176.715 262.240,178.304 259.400 C 178.999 258.159,179.183 258.252,179.932 260.221 C 180.947 262.890,182.877 263.787,184.895 262.526 C 188.865 260.047,192.746 261.535,195.987 266.779 C 198.117 270.225,198.740 270.269,201.359 267.157 C 204.404 263.538,207.077 264.124,209.342 268.909 C 210.529 271.416,212.331 273.450,214.905 275.187 L 218.713 277.757 220.935 275.079 C 223.359 272.156,223.786 270.037,222.152 269.040 C 216.799 265.773,218.992 256.000,225.078 256.000 C 225.849 256.000,227.591 255.425,228.951 254.722 C 232.386 252.946,235.200 254.220,235.200 257.552 C 235.200 261.740,237.730 263.200,244.991 263.200 C 253.081 263.200,256.397 261.747,255.050 258.791 C 254.093 256.690,252.354 256.139,251.811 257.766 C 251.597 258.409,250.867 258.152,249.630 256.999 C 248.231 255.696,247.415 255.457,246.338 256.033 C 242.941 257.851,237.903 256.472,240.392 254.406 C 242.055 253.026,244.000 248.885,244.000 246.724 C 244.000 245.718,244.360 244.672,244.800 244.400 C 245.240 244.128,245.600 240.888,245.600 237.200 C 245.600 233.512,245.240 230.272,244.800 230.000 C 243.361 229.110,243.959 226.368,246.048 224.279 C 247.175 223.152,248.321 222.454,248.595 222.728 C 248.869 223.002,248.667 223.653,248.147 224.173 C 246.551 225.769,246.990 232.658,248.854 235.277 C 250.539 237.642,254.523 238.542,255.600 236.800 C 256.151 235.908,266.620 235.686,267.482 236.548 C 270.248 239.315,281.262 239.926,284.365 237.485 C 286.020 236.183,286.400 236.111,286.400 237.102 C 286.400 237.772,285.792 238.661,285.048 239.077 C 282.083 240.736,287.361 250.149,290.876 249.472 C 291.714 249.310,292.837 247.724,293.617 245.599 C 294.343 243.620,295.148 241.460,295.404 240.800 C 296.213 238.719,296.940 234.939,297.328 230.800 C 297.534 228.600,298.233 225.637,298.881 224.216 C 301.415 218.660,299.771 214.112,293.287 208.738 C 287.199 203.692,286.347 203.336,284.800 205.200 C 283.456 206.819,282.400 206.713,282.400 204.960 C 282.400 204.168,282.103 203.178,281.739 202.760 C 280.782 201.660,279.350 196.204,278.850 191.754 C 278.409 187.824,280.768 184.000,283.634 184.000 C 285.652 184.000,296.325 179.211,300.532 176.418 C 307.350 171.891,308.013 168.732,305.558 152.483 C 304.701 146.809,304.000 139.514,304.000 136.272 C 304.000 128.396,301.968 124.878,297.389 124.825 C 296.173 124.811,294.463 124.440,293.589 124.000 C 292.715 123.560,291.285 122.840,290.411 122.400 C 289.537 121.960,288.062 121.600,287.134 121.600 C 286.206 121.600,284.491 120.957,283.323 120.171 C 282.156 119.385,280.300 118.368,279.200 117.910 C 278.100 117.452,275.580 116.322,273.600 115.399 C 269.528 113.502,266.561 112.477,264.800 112.360 C 261.796 112.162,256.724 110.924,256.335 110.295 C 256.099 109.913,255.087 109.600,254.086 109.600 C 253.085 109.600,252.009 109.343,251.695 109.028 C 250.537 107.870,243.458 106.470,238.591 106.435 C 235.512 106.414,232.276 105.824,230.191 104.905 C 222.315 101.431,212.371 100.763,202.400 103.035 C 198.829 103.850,193.600 108.491,193.600 110.848 C 193.600 111.387,193.088 112.025,192.462 112.265 C 188.857 113.649,186.804 120.048,186.686 130.274 C 186.616 136.276,186.224 140.496,185.686 141.034 C 185.199 141.521,184.800 142.720,184.800 143.698 C 184.800 144.676,183.550 147.034,182.022 148.938 C 177.628 154.412,175.472 159.135,174.414 165.600 C 173.234 172.811,170.026 178.894,165.523 182.461 C 163.635 183.956,162.136 185.918,161.872 187.240 C 161.329 189.955,159.200 189.574,159.200 186.762 C 159.200 185.735,158.840 184.672,158.400 184.400 C 157.960 184.128,157.600 182.339,157.600 180.424 C 157.600 177.060,154.437 172.800,151.939 172.800 C 151.532 172.800,151.200 172.347,151.200 171.792 C 151.200 171.238,150.390 170.275,149.400 169.652 C 145.123 166.961,138.923 164.000,137.566 164.000 C 136.757 164.000,135.872 163.640,135.600 163.200 C 135.328 162.760,133.698 162.400,131.978 162.400 L 128.851 162.400 128.966 158.051 C 129.031 155.583,128.648 153.181,128.081 152.498 C 127.267 151.517,127.375 150.878,128.661 149.047 C 132.708 143.287,131.369 130.400,126.723 130.400 C 125.717 130.400,124.672 130.040,124.400 129.600 C 124.128 129.160,121.047 128.800,117.553 128.800 C 112.247 128.800,111.200 128.588,111.200 127.512 C 111.200 126.456,111.739 126.328,114.200 126.797 C 129.011 129.622,133.882 127.558,132.585 119.004 C 131.777 113.678,131.929 112.914,135.724 103.200 C 138.744 95.470,139.260 94.453,142.936 88.973 C 144.791 86.209,146.511 83.329,146.758 82.573 C 147.005 81.818,148.375 80.387,149.803 79.394 C 151.232 78.400,154.855 75.455,157.857 72.849 C 163.341 68.087,164.200 67.544,175.185 61.880 C 178.869 59.981,181.792 57.846,182.785 56.330 C 184.579 53.592,188.534 52.000,193.540 52.000 C 195.281 52.000,196.928 51.640,197.200 51.200 C 197.472 50.760,198.912 50.400,200.400 50.400 C 201.888 50.400,203.328 50.040,203.600 49.600 C 203.872 49.160,205.312 48.800,206.800 48.800 C 208.288 48.800,209.728 48.440,210.000 48.000 C 210.272 47.560,211.841 47.200,213.487 47.200 C 215.133 47.200,216.881 46.799,217.370 46.310 C 218.438 45.242,220.000 46.037,220.000 47.647 C 220.000 48.574,221.568 48.800,228.000 48.800 C 232.800 48.800,236.000 48.480,236.000 48.000 C 236.000 47.542,233.584 47.200,230.353 47.200 C 226.792 47.200,224.888 46.904,225.200 46.400 C 225.479 45.949,229.361 45.600,234.106 45.600 C 241.658 45.600,242.490 45.458,242.250 44.212 C 241.948 42.646,238.696 41.775,230.000 40.934 C 223.991 40.352,222.400 39.740,222.400 38.006 C 222.400 37.401,221.413 36.792,220.207 36.653 C 217.858 36.382,216.497 33.600,218.713 33.600 C 220.460 33.600,222.033 30.516,220.572 29.955 C 219.215 29.435,215.487 30.798,213.883 32.403 C 212.232 34.053,210.120 33.901,208.407 32.007 C 207.047 30.505,206.906 30.494,205.908 31.807 C 204.978 33.032,204.848 32.790,204.825 29.800 C 204.811 27.930,204.441 26.400,204.002 26.400 C 203.563 26.400,201.868 25.140,200.235 23.600 C 198.602 22.060,196.528 20.800,195.626 20.800 C 194.723 20.800,193.518 20.052,192.947 19.137 C 191.734 17.196,186.308 17.596,183.800 19.811 C 182.535 20.929,182.259 20.921,180.937 19.724 C 180.132 18.996,178.763 18.400,177.894 18.400 C 177.025 18.400,175.105 17.153,173.628 15.629 C 171.549 13.483,170.341 12.881,168.277 12.959 C 166.811 13.014,164.979 12.551,164.206 11.929 C 161.650 9.876,159.248 8.800,157.222 8.800 C 156.123 8.800,153.626 8.373,151.675 7.851 C 148.839 7.092,147.469 7.119,144.847 7.985 C 141.692 9.026,141.481 8.985,139.339 6.934 C 136.856 4.554,136.347 4.391,135.530 5.714 M25.053 32.600 C 24.780 33.370,23.996 34.652,23.310 35.449 C 22.271 36.657,22.246 37.010,23.159 37.575 C 24.502 38.405,26.570 37.723,25.917 36.666 C 25.656 36.244,26.054 35.225,26.800 34.400 C 27.546 33.575,27.920 32.518,27.631 32.050 C 26.838 30.767,25.611 31.029,25.053 32.600 M12.800 54.335 C 12.800 54.739,13.019 55.639,13.286 56.335 C 13.631 57.235,13.298 57.600,12.133 57.600 C 10.214 57.600,9.274 56.403,9.904 54.762 C 10.389 53.497,12.800 53.141,12.800 54.335 M122.209 88.566 C 123.204 88.757,124.644 88.750,125.409 88.550 C 126.174 88.349,125.360 88.193,123.600 88.202 C 121.840 88.211,121.214 88.374,122.209 88.566 M253.083 114.020 C 259.029 114.866,268.107 119.363,272.645 123.711 C 276.439 127.346,276.299 126.619,274.708 134.411 C 274.437 135.737,274.673 137.929,275.233 139.281 C 276.186 141.580,276.107 141.855,274.018 143.521 C 271.837 145.259,271.774 145.539,271.376 155.187 C 270.984 164.718,270.869 165.241,268.181 169.753 C 264.615 175.740,264.351 175.862,261.441 172.887 C 260.104 171.519,258.448 170.400,257.762 170.400 C 256.568 170.400,255.187 170.043,248.701 168.057 C 247.107 167.569,244.163 167.004,242.160 166.801 C 240.157 166.598,236.028 165.594,232.984 164.569 C 228.860 163.180,227.003 162.904,225.699 163.487 C 219.223 166.376,227.184 149.248,234.016 145.592 C 236.105 144.473,236.442 143.283,235.321 140.989 C 234.947 140.225,233.739 137.771,232.636 135.536 C 230.651 131.512,230.645 131.446,232.091 128.736 C 232.894 127.231,234.624 123.796,235.937 121.103 C 237.428 118.042,239.312 115.555,240.961 114.470 C 243.642 112.705,243.795 112.700,253.083 114.020 M86.831 147.150 C 86.633 147.471,85.285 147.549,83.835 147.325 C 81.324 146.936,81.294 146.892,83.200 146.393 C 85.397 145.817,87.397 146.234,86.831 147.150 M88.609 150.966 C 89.604 151.157,91.044 151.150,91.809 150.950 C 92.574 150.749,91.760 150.593,90.000 150.602 C 88.240 150.611,87.614 150.774,88.609 150.966 M249.087 174.699 C 252.336 175.830,252.298 176.064,248.421 178.747 C 246.899 179.801,246.956 179.951,250.021 182.947 C 253.977 186.814,255.611 189.825,254.796 191.746 C 254.252 193.029,254.118 192.965,253.657 191.200 C 252.930 188.416,249.600 187.911,249.600 190.584 C 249.600 194.955,246.629 195.402,239.663 192.082 C 235.133 189.923,232.584 188.805,226.962 186.512 C 225.732 186.011,222.132 185.587,218.962 185.572 C 215.647 185.555,212.364 185.080,211.231 184.453 L 209.262 183.363 212.354 182.071 C 214.054 181.360,215.616 180.949,215.824 181.158 C 216.033 181.366,217.426 181.026,218.921 180.401 C 220.416 179.776,222.136 179.456,222.744 179.689 C 223.351 179.922,226.219 179.518,229.117 178.791 C 232.015 178.065,235.379 177.670,236.593 177.915 C 237.807 178.159,240.060 178.067,241.600 177.709 L 244.400 177.059 240.000 176.225 L 235.600 175.390 239.353 175.295 C 241.417 175.243,243.328 174.840,243.600 174.400 C 244.252 173.344,245.371 173.405,249.087 174.699 M133.914 179.665 C 134.557 181.340,134.534 184.400,133.874 185.060 C 132.814 186.119,131.200 183.731,131.200 181.102 C 131.200 178.246,133.004 177.292,133.914 179.665 M117.874 186.800 C 117.877 190.320,118.018 191.660,118.187 189.779 C 118.356 187.897,118.353 185.017,118.182 183.379 C 118.010 181.740,117.871 183.280,117.874 186.800 M142.393 190.808 C 139.634 194.132,138.355 189.831,141.000 186.123 L 142.800 183.600 143.052 186.656 C 143.190 188.337,142.894 190.205,142.393 190.808 M275.070 189.000 C 278.432 208.738,274.576 216.006,269.202 200.060 C 266.599 192.337,266.589 188.538,269.164 185.964 C 272.607 182.520,274.097 183.287,275.070 189.000 M210.800 195.200 C 211.072 195.640,213.784 196.000,216.828 196.000 C 220.950 196.000,223.029 196.407,224.981 197.597 C 226.421 198.475,228.421 199.195,229.425 199.197 C 231.635 199.201,232.593 201.266,231.326 203.295 C 229.368 206.431,232.313 207.747,235.647 205.225 C 237.451 203.861,243.729 203.633,246.848 204.818 C 248.660 205.507,249.419 205.318,251.647 203.618 C 254.994 201.066,257.003 200.964,256.656 203.365 C 256.499 204.449,255.243 205.738,253.400 206.706 C 251.750 207.572,250.400 208.603,250.400 208.997 C 250.400 210.523,245.389 216.865,238.181 224.462 C 234.038 228.828,230.220 233.210,229.696 234.200 C 228.404 236.642,226.551 236.466,225.493 233.800 C 225.013 232.590,224.120 230.644,223.510 229.477 C 222.899 228.309,222.400 226.753,222.400 226.019 C 222.400 221.340,208.583 206.874,203.968 206.720 C 200.804 206.614,200.596 206.303,201.273 202.682 C 202.234 197.540,208.974 192.246,210.800 195.200 M150.267 200.752 C 150.449 201.993,150.193 202.465,149.467 202.226 C 148.880 202.033,148.280 201.053,148.133 200.048 C 147.951 198.807,148.207 198.335,148.933 198.574 C 149.520 198.767,150.120 199.747,150.267 200.752 M146.312 203.591 C 147.240 205.566,148.000 207.808,148.000 208.573 C 148.000 211.115,144.162 206.291,143.566 203.000 C 142.816 198.861,144.232 199.166,146.312 203.591 M144.336 209.711 C 148.469 213.349,148.322 214.892,143.989 213.347 C 139.468 211.735,137.600 210.436,137.600 208.905 C 137.600 205.364,139.681 205.613,144.336 209.711 M135.600 213.600 C 135.872 214.040,136.977 214.400,138.057 214.400 C 141.103 214.400,147.968 219.240,147.986 221.400 C 147.997 222.846,147.555 223.200,145.737 223.200 C 141.835 223.200,131.992 215.554,133.258 213.506 C 133.840 212.565,134.989 212.611,135.600 213.600 M277.200 215.290 C 277.200 216.420,277.667 217.910,278.239 218.601 C 279.462 220.080,278.257 221.223,276.277 220.463 C 275.411 220.131,275.179 219.392,275.518 218.042 C 275.786 216.973,275.645 215.875,275.203 215.602 C 273.821 214.748,274.292 212.661,275.800 212.959 C 276.698 213.136,277.200 213.971,277.200 215.290 M128.280 223.200 C 128.280 226.940,128.417 228.470,128.586 226.600 C 128.754 224.730,128.754 221.670,128.586 219.800 C 128.417 217.930,128.280 219.460,128.280 223.200 M280.800 226.640 C 280.800 233.159,278.697 234.414,274.438 230.435 C 271.535 227.723,271.936 225.755,275.820 223.647 C 279.944 221.409,280.800 221.923,280.800 226.640 M127.418 236.800 C 127.418 238.780,127.574 239.590,127.765 238.600 C 127.955 237.610,127.955 235.990,127.765 235.000 C 127.574 234.010,127.418 234.820,127.418 236.800 M240.642 240.506 C 240.905 242.336,239.161 243.442,237.200 242.689 C 235.745 242.131,235.651 240.669,236.983 239.337 C 238.404 237.916,240.361 238.542,240.642 240.506 M32.256 248.800 C 32.256 251.660,32.401 252.830,32.579 251.400 C 32.756 249.970,32.756 247.630,32.579 246.200 C 32.401 244.770,32.256 245.940,32.256 248.800 M126.973 251.519 C 126.643 255.435,126.527 258.794,126.716 258.982 C 127.243 259.510,128.182 249.507,127.859 246.797 C 127.702 245.479,127.304 247.604,126.973 251.519 M259.200 259.200 C 256.226 262.174,257.681 263.825,262.016 262.395 C 265.186 261.349,265.398 260.790,263.337 258.924 C 261.473 257.238,261.140 257.260,259.200 259.200 M291.000 268.167 C 289.350 270.002,288.000 271.789,288.000 272.137 C 288.000 272.486,286.619 275.028,284.932 277.786 C 282.080 282.447,280.842 284.926,278.512 290.638 C 278.011 291.868,277.600 294.097,277.600 295.590 C 277.600 297.084,277.286 298.499,276.903 298.736 C 276.520 298.973,275.998 300.164,275.744 301.383 C 275.490 302.603,273.647 305.760,271.649 308.400 C 269.651 311.040,268.013 313.486,268.008 313.836 C 267.974 316.408,276.261 320.030,280.540 319.315 C 281.056 319.228,281.708 319.527,281.987 319.979 C 282.266 320.430,283.352 320.800,284.400 320.800 C 285.448 320.800,286.528 321.160,286.800 321.600 C 287.072 322.040,287.998 322.400,288.858 322.400 C 290.368 322.400,291.147 322.689,294.989 324.675 C 295.973 325.184,297.967 325.600,299.419 325.600 C 301.189 325.600,302.975 326.382,304.830 327.967 C 309.232 331.730,311.290 330.523,308.287 325.939 C 307.219 324.309,307.147 323.553,307.902 321.896 C 308.713 320.115,308.631 319.806,307.252 319.445 C 305.309 318.937,304.275 313.468,305.510 310.230 C 306.080 308.735,306.080 307.321,305.510 305.687 C 304.961 304.110,304.948 302.817,305.474 301.836 C 305.996 300.860,305.993 299.874,305.465 298.931 C 305.026 298.145,304.861 296.995,305.099 296.375 C 305.337 295.754,304.928 294.642,304.189 293.903 C 301.713 291.427,300.918 288.881,300.997 283.671 C 301.041 280.825,300.702 278.025,300.245 277.448 C 299.788 276.872,299.397 274.609,299.376 272.420 C 299.345 269.032,299.002 268.170,297.070 266.624 C 294.197 264.325,294.530 264.241,291.000 268.167 M229.863 267.532 C 226.199 269.175,223.740 276.356,226.299 277.938 C 226.684 278.175,227.909 280.292,229.021 282.642 L 231.044 286.913 235.922 286.561 C 241.213 286.178,241.164 286.131,240.839 291.264 C 240.624 294.656,242.653 295.653,245.495 293.551 C 248.652 291.217,250.400 291.946,250.400 295.595 C 250.400 297.955,250.771 298.581,252.576 299.267 C 255.241 300.280,256.800 298.634,256.800 294.807 C 256.800 293.439,257.183 291.937,257.651 291.469 C 259.006 290.114,249.476 284.285,244.600 283.487 C 240.903 282.881,240.909 282.745,244.807 278.841 C 247.330 276.314,248.610 275.649,251.207 275.516 C 252.993 275.424,255.359 274.756,256.465 274.031 C 258.643 272.604,266.961 271.767,267.664 272.904 C 268.352 274.016,270.987 273.708,271.467 272.458 C 272.707 269.226,255.299 264.792,250.807 267.196 C 249.680 267.799,247.395 267.987,244.703 267.698 C 242.336 267.445,238.600 267.047,236.400 266.815 C 233.820 266.544,231.500 266.798,229.863 267.532 M125.600 271.698 C 125.600 273.472,125.415 273.642,124.400 272.800 C 123.740 272.252,123.200 271.308,123.200 270.702 C 123.200 270.096,123.740 269.600,124.400 269.600 C 125.162 269.600,125.600 270.366,125.600 271.698 M98.600 274.151 C 99.370 274.353,100.630 274.353,101.400 274.151 C 102.170 273.950,101.540 273.786,100.000 273.786 C 98.460 273.786,97.830 273.950,98.600 274.151 M91.400 275.751 C 92.170 275.953,93.430 275.953,94.200 275.751 C 94.970 275.550,94.340 275.386,92.800 275.386 C 91.260 275.386,90.630 275.550,91.400 275.751 M112.000 290.000 C 112.000 292.387,114.994 295.726,116.123 294.597 C 117.109 293.611,114.496 288.000,113.052 288.000 C 112.463 288.000,112.000 288.881,112.000 290.000 M28.000 302.051 C 29.980 302.333,31.942 302.887,32.360 303.282 C 32.778 303.677,34.107 304.000,35.313 304.000 C 36.519 304.000,37.756 304.405,38.062 304.900 C 38.457 305.540,37.717 305.649,35.509 305.278 C 33.799 304.991,29.794 304.435,26.610 304.043 C 18.454 303.040,15.910 302.393,16.484 301.464 C 16.957 300.698,19.371 300.821,28.000 302.051 M89.360 311.471 C 89.106 312.133,91.141 314.125,94.674 316.676 C 99.846 320.410,100.425 320.650,100.661 319.163 C 101.425 314.344,90.984 307.238,89.360 311.471 M61.600 311.881 C 61.600 313.736,62.675 315.200,64.038 315.200 C 65.754 315.200,66.887 313.745,65.890 312.820 C 64.710 311.725,61.600 311.044,61.600 311.881 M37.600 323.514 C 37.600 324.723,39.276 325.600,41.584 325.600 C 42.383 325.600,45.323 326.959,48.118 328.621 C 50.913 330.282,54.280 332.115,55.600 332.694 C 62.078 335.537,68.203 338.907,68.579 339.835 C 69.380 341.812,68.058 341.772,63.884 339.692 C 61.575 338.541,59.053 337.600,58.281 337.600 C 57.508 337.600,55.868 337.195,54.638 336.700 C 53.407 336.206,51.680 335.513,50.800 335.161 C 49.252 334.541,48.010 334.244,41.200 332.867 C 39.440 332.510,36.920 331.757,35.600 331.192 C 32.390 329.818,24.002 329.666,24.001 330.982 C 23.999 332.803,27.834 334.492,32.881 334.892 C 35.640 335.111,38.189 335.470,38.546 335.690 C 39.301 336.157,41.525 336.712,46.000 337.551 C 47.760 337.881,51.512 339.107,54.338 340.275 C 57.164 341.444,59.864 342.408,60.338 342.418 C 60.812 342.428,62.100 343.140,63.200 344.000 C 64.300 344.860,65.802 345.572,66.539 345.582 C 67.275 345.592,68.992 346.538,70.354 347.684 C 73.887 350.657,78.079 350.777,77.785 347.897 C 77.627 346.356,78.001 345.682,79.185 345.372 C 82.418 344.527,79.791 342.113,68.447 335.503 C 66.272 334.237,63.212 332.391,61.647 331.402 C 51.204 324.805,37.600 320.343,37.600 323.514 M6.400 329.930 C 6.400 331.479,12.461 332.477,14.019 331.184 C 15.884 329.636,14.599 328.800,10.353 328.800 C 7.482 328.800,6.400 329.109,6.400 329.930 M86.778 335.235 C 86.518 335.656,86.528 336.360,86.800 336.800 C 87.539 337.996,89.600 337.765,89.600 336.486 C 89.600 335.129,87.436 334.170,86.778 335.235 M1.820 336.582 C 1.127 338.387,2.369 338.902,10.000 339.979 C 13.960 340.538,17.808 341.312,18.551 341.700 C 20.491 342.711,21.242 341.014,19.638 339.242 C 17.118 336.458,2.694 334.304,1.820 336.582 M23.150 340.831 C 22.256 341.383,22.319 341.619,23.476 342.063 C 24.263 342.365,25.268 342.252,25.708 341.812 C 26.780 340.740,24.631 339.916,23.150 340.831 M29.669 342.357 C 28.454 343.108,29.464 343.940,34.903 346.669 C 38.966 348.709,40.000 348.712,40.000 346.687 C 40.000 344.788,31.500 341.226,29.669 342.357 M53.172 346.445 C 52.855 346.959,53.058 347.665,53.625 348.015 C 54.950 348.835,56.958 348.074,56.568 346.901 C 56.145 345.633,53.864 345.326,53.172 346.445 M81.333 346.133 C 80.440 347.027,80.713 347.774,82.871 350.339 C 85.376 353.315,87.200 353.534,87.200 350.858 C 87.200 348.196,82.808 344.659,81.333 346.133 M59.200 352.800 C 59.200 353.991,59.733 354.400,61.286 354.400 C 62.859 354.400,63.252 354.089,62.886 353.135 C 62.619 352.439,62.400 351.719,62.400 351.535 C 62.400 351.351,61.680 351.200,60.800 351.200 C 59.733 351.200,59.200 351.733,59.200 352.800 M78.898 351.769 C 78.067 352.599,81.737 356.000,83.463 356.000 C 85.021 356.000,85.022 355.971,83.533 354.326 C 81.644 352.238,79.572 351.095,78.898 351.769 M25.256 368.709 C 24.621 369.737,26.884 371.378,28.504 371.066 C 29.808 370.815,29.807 370.721,28.486 369.400 C 26.937 367.852,25.920 367.634,25.256 368.709 M308.272 374.046 C 308.005 374.742,308.540 376.072,309.499 377.092 C 311.268 378.975,311.789 382.741,310.400 383.600 C 309.960 383.872,309.600 385.492,309.600 387.200 C 309.600 388.908,309.235 390.531,308.789 390.807 C 307.683 391.490,304.800 397.245,304.800 398.768 C 304.800 399.786,306.051 400.000,312.000 400.000 L 319.200 400.000 319.199 396.600 C 319.196 384.877,310.781 367.508,308.272 374.046 M43.200 384.000 C 43.200 384.440,43.740 384.800,44.400 384.800 C 45.060 384.800,45.600 384.440,45.600 384.000 C 45.600 383.560,45.060 383.200,44.400 383.200 C 43.740 383.200,43.200 383.560,43.200 384.000 M356.800 398.800 C 355.958 399.815,356.128 400.000,357.902 400.000 C 359.234 400.000,360.000 399.562,360.000 398.800 C 360.000 398.140,359.504 397.600,358.898 397.600 C 358.292 397.600,357.348 398.140,356.800 398.800 " stroke="none" fill="#8eaebd" fill-rule="evenodd"></path><path id="path4" d="M112.800 68.454 C 111.260 69.035,109.156 69.530,108.124 69.555 C 105.572 69.616,95.306 72.782,94.752 73.678 C 94.506 74.075,93.602 74.400,92.742 74.400 C 91.882 74.400,90.553 74.718,89.789 75.107 C 89.025 75.495,87.500 76.160,86.400 76.584 C 81.209 78.584,63.465 87.800,61.724 89.400 C 60.647 90.390,59.130 91.200,58.352 91.200 C 56.883 91.200,52.000 97.147,52.000 98.937 C 52.000 100.456,56.305 102.400,59.667 102.400 C 61.288 102.400,63.916 102.737,65.507 103.149 C 67.098 103.561,72.000 104.483,76.400 105.198 C 83.494 106.351,88.557 107.370,93.000 108.539 C 94.984 109.062,94.772 109.899,91.600 114.054 C 87.341 119.634,87.940 121.787,94.000 122.684 C 98.162 123.300,107.538 124.015,104.400 123.477 C 99.252 122.595,98.100 119.692,100.800 114.400 C 103.690 108.735,102.758 107.792,92.691 106.189 C 89.771 105.724,86.572 104.733,85.581 103.986 L 83.781 102.628 87.290 100.221 C 90.582 97.963,99.220 93.982,102.800 93.073 C 103.680 92.849,105.120 92.364,106.000 91.993 C 106.880 91.623,108.680 91.094,110.000 90.817 C 111.320 90.540,114.020 89.958,116.000 89.522 C 125.695 87.390,135.467 88.081,136.579 90.977 C 136.817 91.597,136.064 94.520,134.906 97.472 C 133.748 100.424,132.800 103.821,132.800 105.020 C 132.800 106.219,132.440 107.200,132.000 107.200 C 131.560 107.200,131.211 107.830,131.225 108.600 C 131.265 110.751,133.600 107.408,133.600 105.201 C 133.600 101.536,144.500 82.803,149.748 77.449 C 154.186 72.922,154.873 71.337,152.618 70.833 C 151.618 70.609,148.460 69.820,145.600 69.079 C 138.798 67.317,116.921 66.900,112.800 68.454 M240.961 114.470 C 239.312 115.555,237.428 118.042,235.937 121.103 C 234.624 123.796,232.894 127.231,232.091 128.736 C 230.645 131.446,230.651 131.512,232.636 135.536 C 233.739 137.771,234.947 140.225,235.321 140.989 C 236.442 143.283,236.105 144.473,234.016 145.592 C 227.184 149.248,219.223 166.376,225.699 163.487 C 227.003 162.904,228.860 163.180,232.984 164.569 C 236.028 165.594,240.157 166.598,242.160 166.801 C 244.163 167.004,247.107 167.569,248.701 168.057 C 255.187 170.043,256.568 170.400,257.762 170.400 C 258.448 170.400,260.104 171.519,261.441 172.887 C 264.351 175.862,264.615 175.740,268.181 169.753 C 270.869 165.241,270.984 164.718,271.376 155.187 C 271.774 145.539,271.837 145.259,274.018 143.521 C 276.107 141.855,276.186 141.580,275.233 139.281 C 274.673 137.929,274.437 135.737,274.708 134.411 C 276.299 126.619,276.439 127.346,272.645 123.711 C 268.107 119.363,259.029 114.866,253.083 114.020 C 243.795 112.700,243.642 112.705,240.961 114.470 M131.328 121.676 C 131.068 125.889,128.826 126.785,121.395 125.643 C 117.768 125.086,113.720 124.794,112.400 124.995 C 110.806 125.238,111.410 125.401,114.200 125.480 C 116.510 125.546,118.400 125.960,118.400 126.400 C 118.400 126.861,120.901 127.200,124.302 127.200 C 131.045 127.200,132.290 126.376,131.783 122.252 C 131.524 120.149,131.430 120.030,131.328 121.676 M87.800 129.692 C 86.590 130.595,85.600 131.686,85.600 132.116 C 85.600 132.547,84.647 134.913,83.483 137.374 C 80.925 142.781,81.455 144.131,86.485 145.025 C 88.418 145.368,91.800 146.031,94.000 146.498 C 99.348 147.631,110.539 148.206,108.400 147.237 C 107.520 146.839,105.540 146.461,104.000 146.398 C 94.642 146.014,92.946 132.930,101.946 130.547 C 103.236 130.206,104.436 129.493,104.612 128.963 C 105.231 127.106,90.405 127.749,87.800 129.692 M113.000 130.173 C 114.210 130.356,116.190 130.356,117.400 130.173 C 118.610 129.990,117.620 129.840,115.200 129.840 C 112.780 129.840,111.790 129.990,113.000 130.173 M124.793 131.763 C 126.329 131.965,127.887 132.551,128.254 133.065 C 128.709 133.703,128.819 133.618,128.599 132.800 C 128.388 132.017,127.187 131.565,125.138 131.498 C 122.132 131.401,122.117 131.412,124.793 131.763 M128.186 138.400 C 128.186 139.940,128.350 140.570,128.551 139.800 C 128.753 139.030,128.753 137.770,128.551 137.000 C 128.350 136.230,128.186 136.860,128.186 138.400 M52.800 147.700 C 48.185 148.564,37.600 154.890,37.600 156.783 C 37.600 157.109,36.160 159.011,34.400 161.010 C 32.640 163.010,31.200 164.901,31.200 165.213 C 31.200 165.525,30.268 166.910,29.128 168.290 C 26.607 171.343,18.400 183.947,18.400 184.765 C 18.400 185.088,17.650 186.031,16.734 186.860 C 14.773 188.635,12.800 193.033,12.800 195.630 C 12.800 196.639,11.720 198.484,10.400 199.730 C 9.080 200.975,8.000 202.615,8.000 203.373 C 8.000 204.131,7.280 206.033,6.400 207.600 C 5.520 209.167,4.800 210.983,4.800 211.635 C 4.800 212.288,4.440 213.537,4.000 214.411 C 3.560 215.285,2.840 216.715,2.400 217.589 C 1.960 218.463,1.600 220.062,1.600 221.142 C 1.600 222.222,1.240 223.328,0.800 223.600 C -0.023 224.109,-0.405 308.800,0.416 308.800 C 0.645 308.800,2.175 307.961,3.816 306.936 C 6.851 305.040,15.892 300.345,18.800 299.155 C 19.680 298.795,23.640 298.092,27.600 297.592 C 37.364 296.360,41.087 295.350,44.132 293.103 C 45.550 292.056,47.005 291.200,47.364 291.200 C 47.723 291.200,49.544 290.513,51.409 289.674 C 54.387 288.334,57.952 287.379,72.611 283.989 C 74.488 283.555,76.730 283.200,77.593 283.200 C 78.457 283.200,81.160 282.120,83.600 280.800 C 86.040 279.480,88.727 278.400,89.571 278.400 C 90.415 278.400,91.328 278.040,91.600 277.600 C 91.872 277.160,93.132 276.800,94.400 276.800 C 95.668 276.800,96.903 276.480,97.145 276.088 C 97.387 275.697,98.759 275.174,100.193 274.926 C 107.254 273.707,108.753 273.360,113.339 271.892 C 116.056 271.022,118.710 269.790,119.237 269.155 C 119.765 268.520,120.692 268.000,121.298 268.000 C 121.904 268.000,122.400 267.640,122.400 267.200 C 122.400 266.019,121.170 266.219,118.210 267.882 C 114.651 269.881,106.304 272.800,104.147 272.800 C 103.186 272.800,102.400 273.160,102.400 273.600 C 102.400 274.040,100.981 274.400,99.247 274.400 C 97.513 274.400,95.895 274.722,95.652 275.115 C 95.409 275.509,93.858 276.007,92.205 276.223 C 90.552 276.439,87.220 277.226,84.800 277.971 C 79.949 279.466,76.057 280.480,72.400 281.202 C 67.682 282.134,57.955 284.686,55.600 285.610 C 48.264 288.490,43.922 289.243,41.653 288.028 C 39.548 286.902,35.712 278.788,36.272 276.647 C 36.496 275.789,35.946 273.845,35.050 272.326 C 33.651 269.954,33.557 269.235,34.387 267.230 C 34.919 265.947,35.088 264.467,34.764 263.941 C 32.629 260.487,31.431 246.672,32.900 242.457 C 33.575 240.520,33.565 239.360,32.859 237.810 C 31.541 234.918,35.057 220.746,40.254 208.000 C 41.015 206.132,42.314 202.781,44.918 195.964 C 45.513 194.404,46.631 192.167,47.400 190.992 C 48.170 189.818,48.800 188.458,48.800 187.972 C 48.800 187.486,49.829 185.583,51.087 183.744 C 52.346 181.905,53.972 179.235,54.702 177.811 C 55.433 176.387,57.161 173.933,58.543 172.359 C 61.154 169.386,63.234 166.119,65.149 161.984 C 68.638 154.450,81.964 149.892,97.519 150.911 C 103.384 151.295,105.600 151.188,105.600 150.520 C 105.600 150.014,105.150 149.573,104.600 149.541 C 104.050 149.509,98.020 149.143,91.200 148.728 C 75.162 147.753,55.351 147.222,52.800 147.700 M112.400 148.725 L 110.000 149.261 112.000 149.831 C 113.655 150.302,113.793 150.539,112.800 151.204 C 111.869 151.828,112.137 151.997,114.000 151.960 C 121.073 151.820,126.366 154.307,126.492 157.828 C 126.580 160.289,126.611 160.262,127.212 157.200 C 127.981 153.279,126.766 151.597,122.603 150.816 C 120.747 150.468,120.072 150.050,120.720 149.650 C 121.381 149.241,120.845 148.849,119.165 148.513 C 116.313 147.943,115.838 147.957,112.400 148.725 M107.200 151.200 C 107.200 151.640,107.740 152.000,108.400 152.000 C 109.060 152.000,109.600 151.640,109.600 151.200 C 109.600 150.760,109.060 150.400,108.400 150.400 C 107.740 150.400,107.200 150.760,107.200 151.200 M124.682 165.094 C 123.518 167.516,122.766 169.699,123.011 169.945 C 123.891 170.825,127.299 164.724,127.050 162.714 C 126.834 160.967,126.510 161.293,124.682 165.094 M120.970 172.347 C 120.436 173.518,120.017 175.448,120.038 176.638 C 120.070 178.455,120.270 178.249,121.287 175.345 C 122.669 171.399,122.431 169.140,120.970 172.347 M131.200 181.102 C 131.200 183.731,132.814 186.119,133.874 185.060 C 134.534 184.400,134.557 181.340,133.914 179.665 C 133.004 177.292,131.200 178.246,131.200 181.102 M118.561 185.946 C 118.349 195.376,120.588 203.836,125.093 210.620 C 128.877 216.318,128.709 214.229,127.974 246.400 C 127.762 255.713,127.909 262.887,128.315 263.000 C 128.709 263.110,129.101 258.250,129.187 252.200 C 129.412 236.310,130.419 225.543,131.725 225.041 C 133.411 224.394,132.999 222.433,129.908 216.400 C 124.154 205.167,122.669 201.930,121.653 198.400 C 121.084 196.420,120.303 194.080,119.917 193.200 C 119.532 192.320,119.106 188.720,118.970 185.200 L 118.722 178.800 118.561 185.946 M269.164 185.964 C 266.589 188.538,266.599 192.337,269.202 200.060 C 272.992 211.308,277.232 211.286,276.378 200.023 C 275.190 184.336,273.698 181.429,269.164 185.964 M204.444 197.000 C 199.976 201.475,199.726 206.578,203.968 206.720 C 208.583 206.874,222.400 221.340,222.400 226.019 C 222.400 226.753,222.899 228.309,223.510 229.477 C 224.120 230.644,225.013 232.590,225.493 233.800 C 226.551 236.466,228.404 236.642,229.696 234.200 C 230.220 233.210,234.038 228.828,238.181 224.462 C 245.389 216.865,250.400 210.523,250.400 208.997 C 250.400 208.603,251.750 207.572,253.400 206.706 C 255.243 205.738,256.499 204.449,256.656 203.365 C 257.003 200.964,254.994 201.066,251.647 203.618 C 249.419 205.318,248.660 205.507,246.848 204.818 C 243.729 203.633,237.451 203.861,235.647 205.225 C 232.313 207.747,229.368 206.431,231.326 203.295 C 232.593 201.266,231.635 199.201,229.425 199.197 C 228.421 199.195,226.421 198.475,224.981 197.597 C 223.029 196.407,220.950 196.000,216.828 196.000 C 213.784 196.000,211.072 195.640,210.800 195.200 C 209.833 193.636,207.002 194.438,204.444 197.000 M148.133 200.048 C 148.280 201.053,148.880 202.033,149.467 202.226 C 150.193 202.465,150.449 201.993,150.267 200.752 C 150.120 199.747,149.520 198.767,148.933 198.574 C 148.207 198.335,147.951 198.807,148.133 200.048 M138.133 206.933 C 136.110 208.957,138.249 211.300,143.989 213.347 C 148.322 214.892,148.469 213.349,144.336 209.711 C 140.675 206.488,139.227 205.840,138.133 206.933 M133.258 213.506 C 131.992 215.554,141.835 223.200,145.737 223.200 C 147.555 223.200,147.997 222.846,147.986 221.400 C 147.968 219.240,141.103 214.400,138.057 214.400 C 136.977 214.400,135.872 214.040,135.600 213.600 C 134.989 212.611,133.840 212.565,133.258 213.506 M274.400 213.894 C 274.400 214.560,274.761 215.329,275.203 215.602 C 275.645 215.875,275.786 216.973,275.518 218.042 C 275.179 219.392,275.411 220.131,276.277 220.463 C 278.257 221.223,279.462 220.080,278.239 218.601 C 277.667 217.910,277.200 216.420,277.200 215.290 C 277.200 213.971,276.698 213.136,275.800 212.959 C 274.961 212.793,274.400 213.169,274.400 213.894 M275.820 223.647 C 271.936 225.755,271.535 227.723,274.438 230.435 C 278.697 234.414,280.800 233.159,280.800 226.640 C 280.800 221.923,279.944 221.409,275.820 223.647 M236.983 239.337 C 235.651 240.669,235.745 242.131,237.200 242.689 C 239.161 243.442,240.905 242.336,240.642 240.506 C 240.361 238.542,238.404 237.916,236.983 239.337 M123.200 265.600 C 123.200 266.612,124.835 266.612,126.400 265.600 C 127.335 264.996,127.114 264.822,125.400 264.812 C 124.190 264.806,123.200 265.160,123.200 265.600 M123.200 270.702 C 123.200 271.308,123.740 272.252,124.400 272.800 C 125.415 273.642,125.600 273.472,125.600 271.698 C 125.600 270.366,125.162 269.600,124.400 269.600 C 123.740 269.600,123.200 270.096,123.200 270.702 " stroke="none" fill="#d8d8e6" fill-rule="evenodd"></path></g></svg>